<?xml version="1.0" standalone="no"?><!DOCTYPE svg PUBLIC "-//W3C//DTD SVG 1.1//EN" "http://www.w3.org/Graphics/SVG/1.1/DTD/svg11.dtd"><svg t="1747182480769" class="icon" viewBox="0 0 1024 1024" version="1.1" xmlns="http://www.w3.org/2000/svg" p-id="3083" xmlns:xlink="http://www.w3.org/1999/xlink" width="20" height="20"><path d="M853.333333 469.333333H273.066667l183.466666-183.466666c17.066667-17.066667 17.066667-42.666667 4.266667-59.733334s-42.666667-17.066667-59.733333-4.266666l-4.266667 4.266666-256 256c-4.266667 4.266667-4.266667 8.533333-8.533333 8.533334-4.266667 8.533333-4.266667 21.333333 0 34.133333 0 4.266667 4.266667 8.533333 8.533333 8.533333l256 256c17.066667 17.066667 42.666667 12.8 59.733333-4.266666 12.8-17.066667 12.8-42.666667 0-55.466667L273.066667 554.666667H853.333333c25.6 0 42.666667-17.066667 42.666667-42.666667s-21.333333-42.666667-42.666667-42.666667z" p-id="3084" fill="currentColor"></path></svg>