<?xml version="1.0" encoding="UTF-8"?>
<svg version="1.1" xmlns="http://www.w3.org/2000/svg" width="400" height="300">
<path d="M0 0 C18.83440904 17.86499093 30.13468799 43.4701694 31.23828125 69.35546875 C31.93054566 99.42843277 22.23125224 126.4902778 1.54394531 148.42919922 C-18.13012781 168.44548423 -44.33750763 178.89567911 -72.125 179.1875 C-96.72412389 179.12023046 -119.88419292 171.72246855 -139 156 C-139.97453125 155.20078125 -140.9490625 154.4015625 -141.953125 153.578125 C-161.24933424 137.14038377 -174.42267163 112.41288197 -176.484375 87.0625 C-178.25600491 57.59688983 -172.18632856 31.06301824 -153 8 C-151.90171875 6.67355469 -151.90171875 6.67355469 -150.78125 5.3203125 C-133.40293622 -14.81160733 -107.80897846 -27.28189193 -81.4375 -29.6875 C-50.59834078 -31.49174117 -22.61885351 -21.13192758 0 0 Z M-107 -10 C-108.66542376 -9.33023444 -110.33163105 -8.66239509 -112 -8 C-112.9491946 -4.78673743 -112.9491946 -4.78673743 -113 -1 C-110.2172206 3.1741691 -107.03712151 6.00099545 -103 9 C-99.05982538 4.81201565 -96.72252573 1.56508312 -95 -4 C-92.35559361 -4.8814688 -90.71939248 -5.16174818 -88 -5.1875 C-87.319375 -5.20167969 -86.63875 -5.21585938 -85.9375 -5.23046875 C-84 -5 -84 -5 -81 -3 C-79.6078125 -2.690625 -79.6078125 -2.690625 -78.1875 -2.375 C-74.12681738 -0.62333299 -72.69155827 1.70253832 -70.296875 5.3203125 C-69.86890625 5.87460938 -69.4409375 6.42890625 -69 7 C-68.34 7 -67.68 7 -67 7 C-67 8.98 -67 10.96 -67 13 C-65.515 13.495 -65.515 13.495 -64 14 C-63.505 17.96 -63.505 17.96 -63 22 C-70.75 20.375 -70.75 20.375 -73 17 C-74.97747122 16.63702064 -74.97747122 16.63702064 -77.125 16.8125 C-78.40375 16.874375 -79.6825 16.93625 -81 17 C-79.36587557 18.70840281 -78.13093906 19.93453047 -76 21 C-75.67 21.99 -75.34 22.98 -75 24 C-75.52207031 24.17015625 -76.04414063 24.3403125 -76.58203125 24.515625 C-78.15896617 25.03482599 -79.73152665 25.56740324 -81.30078125 26.109375 C-83.09204406 26.70041396 -84.90380847 27.23274038 -86.73046875 27.703125 C-95.22322974 30.14674029 -98.94570865 34.9970662 -104 42 C-104.98787953 43.17694738 -105.98527749 44.34611554 -107 45.5 C-109.54564105 48.68205132 -110.14002084 51.03449809 -110.125 55 C-110.12757813 55.680625 -110.13015625 56.36125 -110.1328125 57.0625 C-110.06631126 59.21874781 -110.06631126 59.21874781 -109 62 C-110.98 61.67 -112.96 61.34 -115 61 C-115.226875 59.9275 -115.45375 58.855 -115.6875 57.75 C-117.19494511 53.44301396 -117.9265847 52.03670765 -122 50 C-127.17447075 49.58297851 -130.85560758 50.11786418 -135 53.3125 C-138.58525161 58.13018185 -139.44763601 60.84500489 -139 67 C-138.34 67.99 -137.68 68.98 -137 70 C-133.06322571 70.61238711 -131.50345661 70.36615026 -128.25 68 C-127.13625 67.01 -127.13625 67.01 -126 66 C-125.34 66 -124.68 66 -124 66 C-124.09539062 66.62648438 -124.19078125 67.25296875 -124.2890625 67.8984375 C-124.39992188 68.71570313 -124.51078125 69.53296875 -124.625 70.375 C-124.74101562 71.18710938 -124.85703125 71.99921875 -124.9765625 72.8359375 C-124.98429687 73.55007812 -124.99203125 74.26421875 -125 75 C-122.8614515 77.1385485 -121.86724686 77.42655063 -119 78 C-118.855625 78.928125 -118.71125 79.85625 -118.5625 80.8125 C-118.07899889 84.00725111 -118.07899889 84.00725111 -117 87 C-113.84258099 88.5787095 -110.43424666 88.49737365 -107 88 C-105.6078125 87.25943359 -105.6078125 87.25943359 -104.1875 86.50390625 C-96.70541069 82.97375382 -86.08689124 84.34562952 -78.12890625 86.16796875 C-75.07003228 87.36345527 -73.10935344 89.27838312 -70.7890625 91.5546875 C-68.69128498 93.2493986 -66.89659629 93.8301991 -64.3125 94.5625 C-60.14448603 95.76753805 -58.31411777 97.20484687 -56 101 C-55.72607422 101.67466309 -55.45214844 102.34932617 -55.16992188 103.04443359 C-53.65945689 105.56923003 -52.47910819 105.9243446 -49.71875 106.8515625 C-48.87699219 107.14546875 -48.03523438 107.439375 -47.16796875 107.7421875 C-46.28753906 108.03351563 -45.40710938 108.32484375 -44.5 108.625 C-42.75874818 109.21646475 -41.01907697 109.81260937 -39.28125 110.4140625 C-38.50845703 110.6713916 -37.73566406 110.9287207 -36.93945312 111.19384766 C-35 112 -35 112 -33 114 C-31.97266623 119.36496526 -33.34644227 121.88568261 -36.375 126.375 C-37.01308594 127.30699219 -37.65117187 128.23898438 -38.30859375 129.19921875 C-40.66657258 133.1037703 -41.3385535 136.5168626 -42 141 C-42.66 141 -43.32 141 -44 141 C-44.45117188 141.45375 -44.90234375 141.9075 -45.3671875 142.375 C-47.67015013 144.66694367 -50.31340833 145.64325641 -53.2578125 146.9375 C-55.34241818 147.95176998 -55.34241818 147.95176998 -56 151 C-56.66 151 -57.32 151 -58 151 C-58.763125 152.010625 -59.52625 153.02125 -60.3125 154.0625 C-64.67024117 159.41411196 -70.91374488 162.02911286 -77 165 C-75.04602277 167.40981911 -75.04602277 167.40981911 -71.39453125 167.1171875 C-52.46806737 166.32797426 -30.60554402 161.06592827 -16 148 C-16 147.34 -16 146.68 -16 146 C-15.1646875 145.62875 -15.1646875 145.62875 -14.3125 145.25 C-11.57589087 143.77075182 -9.32349131 142.06532561 -7 140 C-7 139.34 -7 138.68 -7 138 C-6.34 138 -5.68 138 -5 138 C5.22948748 127.79402858 13.07010656 112.39483103 13.1875 97.75 C13.125625 96.8425 13.06375 95.935 13 95 C11.69675781 95.16048828 11.69675781 95.16048828 10.3671875 95.32421875 C-1.38870825 96.5471475 -1.38870825 96.5471475 -6 93 C-10.5774678 88.4225322 -11.77498022 83.65523346 -12.3125 77.3125 C-11.85385448 64.68767866 -5.98128274 50.77707135 2 41 C1.071875 40.7525 0.14375 40.505 -0.8125 40.25 C-4.28489468 38.8882766 -5.22383064 38.19710485 -7 35 C-9 29.73684211 -9 29.73684211 -9 27 C-6.03 26.505 -6.03 26.505 -3 26 C-3.48207356 23.49641128 -3.48207356 23.49641128 -5 21 C-8.53514293 19.62032476 -8.53514293 19.62032476 -12 19 C-11.979375 17.989375 -11.95875 16.97875 -11.9375 15.9375 C-11.76025042 8.41189269 -11.76025042 8.41189269 -15.66796875 2.375 C-16.8240491 1.55856947 -17.99861291 0.76787243 -19.1875 0 C-19.80810303 -0.42007324 -20.42870605 -0.84014648 -21.06811523 -1.27294922 C-32.70861773 -9.34704502 -32.70861773 -9.34704502 -46 -12 C-46.103125 -10.741875 -46.20625 -9.48375 -46.3125 -8.1875 C-46.6388965 -5.72864639 -46.90152347 -4.17506939 -48.125 -2 C-51.17097306 -0.37548104 -53.61595595 -0.64992648 -57 -1 C-60.72719668 -2.93550567 -63.67062896 -5.35096527 -66.75 -8.1875 C-69.05256258 -10.73255464 -69.05256258 -10.73255464 -72 -12 C-72.66 -9.69 -73.32 -7.38 -74 -5 C-77.49001114 -5.88961068 -80.46378179 -6.65145816 -83.5 -8.625 C-86.77466111 -10.42606361 -89.32374078 -10.21625054 -93 -10 C-92.67 -11.32 -92.34 -12.64 -92 -14 C-90.02 -14 -88.04 -14 -86 -14 C-86 -14.33 -86 -14.66 -86 -15 C-93.83828843 -15.76845965 -99.86058645 -13.01665361 -107 -10 Z M7 34 C5.39092892 36.37612865 5.39092892 36.37612865 4 39 C4.88237303 41.33889989 4.88237303 41.33889989 7.9375 42.0625 C8.948125 42.371875 9.95875 42.68125 11 43 C11.66 43.33 12.32 43.66 13 44 C11.6302836 40.00499382 9.74277578 37.19990508 7 34 Z M-160 46 C-160.65161012 47.87300025 -161.29602195 49.7485055 -161.9375 51.625 C-162.47697266 53.19121094 -162.47697266 53.19121094 -163.02734375 54.7890625 C-168.72671878 73.60386682 -164.76326993 95.45129103 -157 113 C-156.44699219 114.28970703 -156.44699219 114.28970703 -155.8828125 115.60546875 C-153.02461535 121.80479981 -149.15257025 127.06551028 -144.98828125 132.43359375 C-143.59034185 134.23800669 -142.26614383 136.10078425 -141 138 C-140.34 138 -139.68 138 -139 138 C-138.79375 138.55945313 -138.5875 139.11890625 -138.375 139.6953125 C-136.50115558 142.83613127 -133.88885419 144.72741648 -131 146.875 C-130.1188855 147.53580566 -130.1188855 147.53580566 -129.2199707 148.20996094 C-119.93200938 155.09030676 -107.05347176 164 -95 164 C-94.67862695 159.50167618 -94.48461595 155.00630841 -94.3125 150.5 C-94.22033203 149.2315625 -94.12816406 147.963125 -94.03320312 146.65625 C-93.72555888 139.43173879 -93.72555888 139.43173879 -97.33276367 133.49536133 C-100.14685257 131.49895731 -103.02777187 129.74843218 -106 128 C-110.86380417 123.17655935 -114.44408062 118.31246822 -114.8125 111.3125 C-114.41830598 105.93291103 -112.33313015 102.15450865 -109 98 C-109.93545998 95.40743101 -109.93545998 95.40743101 -112 93 C-114.0504534 92.43185354 -115.94041067 92.25316004 -118.0625 92.140625 C-120 92 -120 92 -123 91 C-123.70394612 89.68596724 -124.36345658 88.3479743 -125 87 C-128.31920118 81.73743233 -132.3774743 80.19721498 -137.9375 78 C-147.18229595 74.32894301 -151.90932634 70.35001406 -155.9296875 61.0703125 C-157.64424344 56.15191482 -158.39673541 51.1592628 -159 46 C-159.33 46 -159.66 46 -160 46 Z " fill="#0E2055" transform="translate(273,76)"/>
<path d="M0 0 C0.33 0 0.66 0 1 0 C1.66 2.97 2.32 5.94 3 9 C7.91861415 7.80711767 7.91861415 7.80711767 12.25 5.3125 C12.8275 4.879375 13.405 4.44625 14 4 C14.99 4.33 15.98 4.66 17 5 C16.67 7.97 16.34 10.94 16 14 C16.969375 14.37125 17.93875 14.7425 18.9375 15.125 C22 17 22 17 22.875 20.0625 C22.94499456 21.7073721 23 23.35363932 23 25 C26.15741901 26.5787095 29.56575334 26.49737365 33 26 C33.928125 25.50628906 34.85625 25.01257813 35.8125 24.50390625 C43.5871116 20.83573779 53.90458604 22.65466762 62.14453125 24.26953125 C64 25 64 25 66 28 C64.43675768 27.88465396 62.87440317 27.75724874 61.3125 27.625 C60.44238281 27.55539063 59.57226562 27.48578125 58.67578125 27.4140625 C56 27 56 27 53.625 25.9375 C50.12908987 24.68896067 47.36605273 25.03121003 43.6875 25.375 C42.43324219 25.48585937 41.17898437 25.59671875 39.88671875 25.7109375 C38.93410156 25.80632812 37.98148438 25.90171875 37 26 C37 26.66 37 27.32 37 28 C32.25 30 32.25 30 30 30 C30.350625 30.66 30.70125 31.32 31.0625 32 C32.32853409 36.0513091 31.70614482 38.83374555 31 43 C29.35 43.66 27.7 44.32 26 45 C26.31195313 44.38511719 26.62390625 43.77023438 26.9453125 43.13671875 C27.33460938 42.32847656 27.72390625 41.52023438 28.125 40.6875 C28.51945312 39.88699219 28.91390625 39.08648437 29.3203125 38.26171875 C29.65675781 37.14216797 29.65675781 37.14216797 30 36 C29.34 35.01 28.68 34.02 28 33 C26.00966381 32.80422923 24.01915982 32.60977937 22.02734375 32.4296875 C17.81610793 31.5371327 15.65198766 27.99810457 13.41796875 24.578125 C10.1133944 21.05466931 6.49921468 19.75330412 2.0625 18 C-4.46978984 15.40606408 -9.67534101 13.09582775 -13.3125 6.6875 C-13.539375 6.130625 -13.76625 5.57375 -14 5 C-13.34 5 -12.68 5 -12 5 C-11.79375 5.78375 -11.5875 6.5675 -11.375 7.375 C-10.22733739 10.2516646 -10.22733739 10.2516646 -7.25 11.125 C-5.64125 11.558125 -5.64125 11.558125 -4 12 C-1.98529902 12.97004121 0.01922047 13.96244882 2 15 C2.66 13.35 3.32 11.7 4 10 C3.01 9.67 2.02 9.34 1 9 C-0.4783226 6.04335481 -0.06032783 3.25770263 0 0 Z " fill="#0D1E4E" transform="translate(133,137)"/>
<path d="M0 0 C0.515625 0.66 1.03125 1.32 1.5625 2 C2.91263925 3.66170985 4.28802473 5.30662767 5.75390625 6.8671875 C9.81617584 11.22628263 11.64379867 14.23614433 13 20 C13.556875 20.556875 14.11375 21.11375 14.6875 21.6875 C15.120625 22.120625 15.55375 22.55375 16 23 C15.6875 25.1875 15.6875 25.1875 15 27 C15.99 27.66 16.98 28.32 18 29 C17.01 29.99 16.02 30.98 15 32 C14.67 30.68 14.34 29.36 14 28 C11.7763932 29.9254644 11.7763932 29.9254644 11 33 C10.67 31.35 10.34 29.7 10 28 C9.34 28 8.68 28 8 28 C6.79492188 26.6706543 6.79492188 26.6706543 5.46875 24.82421875 C4.98792969 24.16099609 4.50710937 23.49777344 4.01171875 22.81445312 C3.51285156 22.11255859 3.01398438 21.41066406 2.5 20.6875 C2.00113281 19.99720703 1.50226563 19.30691406 0.98828125 18.59570312 C-5.03361734 10.24092425 -5.03361734 10.24092425 -4.625 7.3125 C-4.41875 6.549375 -4.2125 5.78625 -4 5 C-3.34 5 -2.68 5 -2 5 C-1.7834375 4.0409375 -1.7834375 4.0409375 -1.5625 3.0625 C-1 1 -1 1 0 0 Z M18 27 C20 28 20 28 20 28 Z " fill="#0E2053" transform="translate(116,193)"/>
<path d="M0 0 C0.99 0.33 1.98 0.66 3 1 C2.67 3.97 2.34 6.94 2 10 C2.969375 10.37125 3.93875 10.7425 4.9375 11.125 C8 13 8 13 8.875 16.0625 C8.94499456 17.7073721 9 19.35363932 9 21 C12.15741901 22.5787095 15.56575334 22.49737365 19 22 C19.928125 21.50628906 20.85625 21.01257813 21.8125 20.50390625 C29.5871116 16.83573779 39.90458604 18.65466762 48.14453125 20.26953125 C50 21 50 21 52 24 C50.43675768 23.88465396 48.87440317 23.75724874 47.3125 23.625 C46.44238281 23.55539063 45.57226562 23.48578125 44.67578125 23.4140625 C42 23 42 23 39.625 21.9375 C36.12908987 20.68896067 33.36605273 21.03121003 29.6875 21.375 C28.43324219 21.48585937 27.17898437 21.59671875 25.88671875 21.7109375 C24.93410156 21.80632812 23.98148438 21.90171875 23 22 C23 22.66 23 23.32 23 24 C18.25 26 18.25 26 16 26 C16.350625 26.66 16.70125 27.32 17.0625 28 C18.32853409 32.0513091 17.70614482 34.83374555 17 39 C15.35 39.66 13.7 40.32 12 41 C12.31195313 40.38511719 12.62390625 39.77023438 12.9453125 39.13671875 C13.33460938 38.32847656 13.72390625 37.52023438 14.125 36.6875 C14.51945312 35.88699219 14.91390625 35.08648437 15.3203125 34.26171875 C15.65675781 33.14216797 15.65675781 33.14216797 16 32 C15.34 31.01 14.68 30.02 14 29 C12.0154306 28.80479645 10.03044983 28.61212704 8.04296875 28.44921875 C4.72723012 27.72013664 3.0847061 25.54073556 1 23 C1.639375 22.79375 2.27875 22.5875 2.9375 22.375 C5.32862869 21.11491494 5.32862869 21.11491494 5.75 18 C6.02768183 15.16955119 6.02768183 15.16955119 6 13 C5.01 13.33 4.02 13.66 3 14 C1.68 12.35 0.36 10.7 -1 9 C0.875 4.25 0.875 4.25 2 2 C0.68 1.67 -0.64 1.34 -2 1 C-1.34 0.67 -0.68 0.34 0 0 Z " fill="#0A163E" transform="translate(147,141)"/>
<path d="M0 0 C0.8971875 1.1446875 0.8971875 1.1446875 1.8125 2.3125 C3.8160239 4.91860045 3.8160239 4.91860045 5.75 6.5625 C7 8 7 8 7 12 C7.474375 12.45375 7.94875 12.9075 8.4375 13.375 C10.65520419 15.68141236 10.65495395 17.89458559 11 21 C8 22 8 22 4.375 20.75 C1 19 1 19 0 16 C-2.31 16.33 -4.62 16.66 -7 17 C-5.7625 17.6496875 -5.7625 17.6496875 -4.5 18.3125 C-3.675 18.869375 -2.85 19.42625 -2 20 C-2 20.99 -2 21.98 -2 23 C-8.59278183 25.87884807 -14.95001999 28.50865808 -22 30 C-19.65378301 26.48067452 -18.5349046 26.23206627 -14.625 24.9375 C-11.2749186 23.81328131 -8.12111922 22.66410385 -5 21 C-6.32 20.34 -7.64 19.68 -9 19 C-8.67 17.35 -8.34 15.7 -8 14 C-4.37 13.01 -0.74 12.02 3 11 C3.33 9.68 3.66 8.36 4 7 C3.01 7 2.02 7 1 7 C0.34 5.02 -0.32 3.04 -1 1 C-0.67 0.67 -0.34 0.34 0 0 Z " fill="#112052" transform="translate(200,77)"/>
<path d="M0 0 C2.45967552 1.22983776 4.04322965 2.90946854 5.875 4.9375 C4.23772637 6.73850099 2.9706064 7.89250875 0.75 8.9375 C-1.4780435 9.84952978 -1.4780435 9.84952978 -2.125 12.9375 C-6.79701205 14.14318053 -11.33996292 14.03132426 -16.125 13.9375 C-15.795 12.9475 -15.465 11.9575 -15.125 10.9375 C-16.115 10.9375 -17.105 10.9375 -18.125 10.9375 C-17.795 9.6175 -17.465 8.2975 -17.125 6.9375 C-15.475 6.6075 -13.825 6.2775 -12.125 5.9375 C-12.125 5.2775 -12.125 4.6175 -12.125 3.9375 C-11.320625 3.7828125 -11.320625 3.7828125 -10.5 3.625 C-7.94112768 2.97565399 -7.94112768 2.97565399 -5.125 1.3125 C-2.125 -0.0625 -2.125 -0.0625 0 0 Z " fill="#0F2157" transform="translate(250.125,231.0625)"/>
<path d="M0 0 C0 0.33 0 0.66 0 1 C-1.75032844 0.85816304 -3.50025534 0.71136571 -5.25 0.5625 C-6.22453125 0.48128906 -7.1990625 0.40007813 -8.203125 0.31640625 C-11 0 -11 0 -12.984375 -0.5 C-32.6552065 -5.37958611 -53.10678994 -0.80531807 -71.5546875 6.1328125 C-74 7 -74 7 -76.2578125 7.4921875 C-76.83273438 7.65976562 -77.40765625 7.82734375 -78 8 C-78.33 8.66 -78.66 9.32 -79 10 C-80.32407669 10.68486725 -81.65909241 11.34870203 -83 12 C-83.66 12.556875 -84.32 13.11375 -85 13.6875 C-87 15 -87 15 -89.125 14.58203125 C-90.053125 14.29392578 -90.053125 14.29392578 -91 14 C-63.19654578 -4.66111918 -31.99411209 -9.25805397 0 0 Z " fill="#091338" transform="translate(232,51)"/>
<path d="M0 0 C0.66 0.33 1.32 0.66 2 1 C1.525625 1.70125 1.05125 2.4025 0.5625 3.125 C-1.16907969 5.91313879 -1.16907969 5.91313879 -1.4375 9.0625 C-2 12 -2 12 -3.875 13.7421875 C-6.53629624 16.56981475 -7.5131712 19.41066051 -8.5625 23.0625 C-8.77156982 23.7733374 -8.98063965 24.4841748 -9.19604492 25.21655273 C-12.24264292 36.5239147 -12.96793063 48.37218982 -14 60 C-13.34 60.33 -12.68 60.66 -12 61 C-12.33 66.61 -12.66 72.22 -13 78 C-13.33 78 -13.66 78 -14 78 C-18.33125896 51.01017146 -15.58438639 23.1539455 0 0 Z " fill="#0A163B" transform="translate(112,95)"/>
<path d="M0 0 C2.475 0.495 2.475 0.495 5 1 C5 1.66 5 2.32 5 3 C6.45903258 2.69078116 7.91720722 2.37751201 9.375 2.0625 C10.59316406 1.80146484 10.59316406 1.80146484 11.8359375 1.53515625 C14.029463 1.07669307 14.029463 1.07669307 16 0 C18.00800456 0.28112064 20.01014051 0.61067967 22 1 C21.48215475 13.22114785 18.98622344 25.45821739 12.953125 36.1796875 C11.84537836 37.95284416 11.84537836 37.95284416 12 40 C8.88494633 42.84804907 5.98671063 44.63312778 2 46 C3.40806116 42.89949094 5.12270465 40.5351508 7.3125 37.9375 C15.25176946 27.83597628 18.56646084 15.61514464 20 3 C19.14728516 3.23396484 19.14728516 3.23396484 18.27734375 3.47265625 C13.21484157 4.74884628 9.15692038 5.4156252 4 4 C1.5625 1.9375 1.5625 1.9375 0 0 Z " fill="#0A143A" transform="translate(266,168)"/>
<path d="M0 0 C3.93774177 -0.36630156 5.56539771 -0.30233203 8.875 2 C9.57625 2.66 10.2775 3.32 11 4 C10.67 4.66 10.34 5.32 10 6 C10.66 6.33 11.32 6.66 12 7 C11.01 7.495 11.01 7.495 10 8 C9.34 7.67 8.68 7.34 8 7 C8.1387881 10.60447434 8.28723935 14.20848712 8.4375 17.8125 C8.47681641 18.83666016 8.51613281 19.86082031 8.55664062 20.91601562 C8.59853516 21.89892578 8.64042969 22.88183594 8.68359375 23.89453125 C8.72025146 24.80050049 8.75690918 25.70646973 8.79467773 26.63989258 C8.9208205 29.15048782 8.9208205 29.15048782 10 32 C5.96779289 34.01610356 2.18129458 33.35361629 -1.98828125 32.10546875 C-4.07669029 31.3838329 -6.15799594 30.64120304 -8.23046875 29.875 C-11.15161684 28.79915994 -11.15161684 28.79915994 -15 29 C-15 27.68 -15 26.36 -15 25 C-4.5 28.5 -4.5 28.5 6 32 C5.67 31.01 5.34 30.02 5 29 C4.97510015 27.12628656 5.00915229 25.25151534 5.078125 23.37890625 C5.10390625 22.27869141 5.1296875 21.17847656 5.15625 20.04492188 C5.21865767 17.72673709 5.29674043 15.40892033 5.390625 13.09179688 C5.74132637 6.55156562 5.74132637 6.55156562 2.484375 1.21484375 C1.66453125 0.81394531 0.8446875 0.41304687 0 0 Z " fill="#0D1A47" transform="translate(172,208)"/>
<path d="M0 0 C8.82962309 8.82962309 8.30896146 29.50790674 8.31347656 41.38037109 C8.17477965 49.46331872 6.8423315 57.14815861 5 65 C4.87625 64.360625 4.7525 63.72125 4.625 63.0625 C4.41875 62.381875 4.2125 61.70125 4 61 C3.34 60.67 2.68 60.34 2 60 C2.21293701 59.48663086 2.42587402 58.97326172 2.64526367 58.44433594 C5.09655778 51.95818736 5.43190401 46.13781212 5.3125 39.25 C5.3019458 38.19031006 5.2913916 37.13062012 5.28051758 36.03881836 C5.10782696 25.85007179 4.12521162 16.50434629 0.59765625 6.87890625 C-0.14787899 4.53509938 -0.23620313 2.44076571 0 0 Z " fill="#051035" transform="translate(296,112)"/>
<path d="M0 0 C0 0.66 0 1.32 0 2 C-13.26726788 6.84584607 -27.65181713 11.86175272 -42 11 C-43.875 9.625 -43.875 9.625 -45 8 C-45 7.34 -45 6.68 -45 6 C-44.34 6 -43.68 6 -43 6 C-43 5.34 -43 4.68 -43 4 C-42.01 4.33 -41.02 4.66 -40 5 C-40 5.66 -40 6.32 -40 7 C-27.4680751 6.71289977 -15.94914641 5.61720743 -4.20703125 0.87109375 C-2 0 -2 0 0 0 Z " fill="#08153C" transform="translate(238,235)"/>
<path d="M0 0 C0.391875 0.45375 0.78375 0.9075 1.1875 1.375 C2.94036124 3.16706356 2.94036124 3.16706356 5.5 3.8125 C8.93155244 5.44248741 9.58597792 7.57657813 11 11 C9 14 9 14 7 15 C6.34786708 17.02463255 6.34786708 17.02463255 6 19 C6.66 19.33 7.32 19.66 8 20 C7.67 20.66 7.34 21.32 7 22 C7.66 22 8.32 22 9 22 C9 22.66 9 23.32 9 24 C11.31 24 13.62 24 16 24 C16.33 24.99 16.66 25.98 17 27 C16.34 27 15.68 27 15 27 C14.67 27.99 14.34 28.98 14 30 C13.34 30 12.68 30 12 30 C11.67 30.99 11.34 31.98 11 33 C10.34 33 9.68 33 9 33 C10.15173355 30.53199953 11.04783565 28.95216435 13 27 C12.2575 26.773125 11.515 26.54625 10.75 26.3125 C6.32758716 24.20180296 4.523969 21.27249614 2.6875 16.8125 C2 14 2 14 3 12 C4.64363134 11.27840576 6.31050386 10.60648579 8 10 C7.67 8.68 7.34 7.36 7 6 C4.69 5.34 2.38 4.68 0 4 C0 2.68 0 1.36 0 0 Z " fill="#0C173B" transform="translate(261,91)"/>
<path d="M0 0 C1 2 1 2 0.44140625 4.1640625 C0.15136719 4.97617188 -0.13867188 5.78828125 -0.4375 6.625 C-0.86869141 7.85089844 -0.86869141 7.85089844 -1.30859375 9.1015625 C-1.53675781 9.72804687 -1.76492187 10.35453125 -2 11 C-2.66 11 -3.32 11 -4 11 C-4.33 11.99 -4.66 12.98 -5 14 C-7.25 15.31640625 -7.25 15.31640625 -10 16.5625 C-13.70967628 18.02364577 -13.70967628 18.02364577 -16 21 C-16.66 21 -17.32 21 -18 21 C-18.309375 21.8353125 -18.309375 21.8353125 -18.625 22.6875 C-22.32911876 28.91715428 -28.53608344 31.42879763 -35 34 C-35 33.34 -35 32.68 -35 32 C-32.98828125 30.6328125 -32.98828125 30.6328125 -30.3125 29.125 C-23.06922459 25.07346484 -23.06922459 25.07346484 -18.3125 18.5 C-16.08457594 14.17304005 -12.67938427 13.47609075 -8.27734375 11.95703125 C-5.77669491 11.114693 -5.77669491 11.114693 -4 8.5625 C-3.67 7.716875 -3.34 6.87125 -3 6 C-2.62875 5.0925 -2.2575 4.185 -1.875 3.25 C-1.441875 2.13625 -1.441875 2.13625 -1 1 C-0.67 0.67 -0.34 0.34 0 0 Z " fill="#0B1639" transform="translate(233,206)"/>
<path d="M0 0 C6.96050253 0.38669459 11.9394075 2.63438409 18 6 C17.67 6.99 17.34 7.98 17 9 C10.37822074 8.69343615 5.77874846 7.25711277 0 4 C0 2.68 0 1.36 0 0 Z " fill="#0E1940" transform="translate(155,139)"/>
<path d="M0 0 C1.9375 1.5 1.9375 1.5 3 3 C-0.02763157 3.75690789 -2.35818549 3.97441532 -5.5 3.75 C-10.74676582 3.64006776 -15.18641969 5.80650696 -19.94921875 7.80859375 C-22.66115402 8.86767218 -25.13520679 9.53759367 -28 10 C-28 12.64 -28 15.28 -28 18 C-28.66 18 -29.32 18 -30 18 C-30 15.03 -30 12.06 -30 9 C-26.28392693 7.50486123 -22.5662792 6.01414979 -18.84375 4.53515625 C-16.70928997 3.68683201 -14.58560713 2.82541782 -12.46875 1.93359375 C-8.17430336 0.16980316 -4.6344501 -0.54522942 0 0 Z " fill="#09153A" transform="translate(189,58)"/>
<path d="M0 0 C1.216875 -0.020625 2.43375 -0.04125 3.6875 -0.0625 C4.71423828 -0.07990234 4.71423828 -0.07990234 5.76171875 -0.09765625 C8 0 8 0 10.140625 0.49609375 C14.44100873 1.25394826 18.70502063 1.14384995 23.0625 1.125 C24.40924805 1.13080078 24.40924805 1.13080078 25.78320312 1.13671875 C27.08354492 1.13478516 27.08354492 1.13478516 28.41015625 1.1328125 C29.19527588 1.13168457 29.98039551 1.13055664 30.78930664 1.12939453 C33.01981905 1.07577166 33.01981905 1.07577166 35.17749023 0.40185547 C35.77891846 0.26924316 36.38034668 0.13663086 37 0 C38.75 1.4375 38.75 1.4375 40 3 C26.2248288 5.00366126 12.67688257 4.22971011 -1 2 C-0.67 1.34 -0.34 0.68 0 0 Z " fill="#0D183C" transform="translate(178,251)"/>
<path d="M0 0 C2.97 0 5.94 0 9 0 C9.33 0.99 9.66 1.98 10 3 C9.01 3.495 9.01 3.495 8 4 C8 3.34 8 2.68 8 2 C5.69 2.33 3.38 2.66 1 3 C2.2375 3.6496875 2.2375 3.6496875 3.5 4.3125 C4.325 4.869375 5.15 5.42625 6 6 C6 6.99 6 7.98 6 9 C-0.59278183 11.87884807 -6.95001999 14.50865808 -14 16 C-11.65378301 12.48067452 -10.5349046 12.23206627 -6.625 10.9375 C-3.2749186 9.81328131 -0.12111922 8.66410385 3 7 C1.68 6.34 0.36 5.68 -1 5 C-0.67 3.35 -0.34 1.7 0 0 Z " fill="#091438" transform="translate(192,91)"/>
<path d="M0 0 C3.413943 0.64060258 5.80484586 1.95958353 8.6875 3.875 C9.47511719 4.38804688 10.26273437 4.90109375 11.07421875 5.4296875 C13 7 13 7 14 10 C14.99 10.433125 14.99 10.433125 16 10.875 C18 12 18 12 18.75 14.625 C18.87375 15.800625 18.87375 15.800625 19 17 C17.02 17.33 15.04 17.66 13 18 C10.875 12.375 10.875 12.375 12 9 C11.42765625 8.73316406 10.8553125 8.46632813 10.265625 8.19140625 C7.90688039 6.95103193 5.876888 5.54054336 3.75 3.9375 C3.04359375 3.41027344 2.3371875 2.88304688 1.609375 2.33984375 C1.07828125 1.89769531 0.5471875 1.45554687 0 1 C0 0.67 0 0.34 0 0 Z " fill="#081338" transform="translate(248,72)"/>
<path d="M0 0 C1.19590904 3.58772713 0.62773808 5.28481547 0 9 C-0.1765337 12.12530036 -0.18990105 15.24522869 -0.1875 18.375 C-0.18814453 19.24608398 -0.18878906 20.11716797 -0.18945312 21.01464844 C-0.12446317 29.12362204 0.74737937 36.99217528 2 45 C-4.57115138 37.34341512 -3.23921967 25.47720892 -2.75 16 C-2.71003906 14.89527344 -2.67007813 13.79054687 -2.62890625 12.65234375 C-2.23186784 3.82092178 -2.23186784 3.82092178 0 0 Z " fill="#051234" transform="translate(109,131)"/>
<path d="M0 0 C11.92218543 3.22221228 21.80105969 11.07077257 31 19 C31.33 19.66 31.66 20.32 32 21 C27.95332628 19.61256901 25.26781206 17.73584266 22 15 C18.20270698 11.94129252 14.61001555 9.08954941 10.0625 7.25 C7 6 7 6 6 4 C4.02111039 3.27306096 2.02045442 2.60183749 0 2 C0 1.34 0 0.68 0 0 Z " fill="#0B143A" transform="translate(240,55)"/>
<path d="M0 0 C0.33 0 0.66 0 1 0 C1 7.26 1 14.52 1 22 C-9.04682779 20.8836858 -9.04682779 20.8836858 -12.8125 19.4375 C-15.95892544 18.23968048 -17.46144155 18 -21 18 C-21 16.68 -21 15.36 -21 14 C-10.5 17.5 -10.5 17.5 0 21 C-0.33 20.01 -0.66 19.02 -1 18 C-1.02172852 16.00708008 -1.02172852 16.00708008 -0.87890625 13.76953125 C-0.83056641 12.96708984 -0.78222656 12.16464844 -0.73242188 11.33789062 C-0.67634766 10.50451172 -0.62027344 9.67113281 -0.5625 8.8125 C-0.51029297 7.96751953 -0.45808594 7.12253906 -0.40429688 6.25195312 C-0.27476311 4.16763701 -0.13806823 2.08376818 0 0 Z " fill="#070F35" transform="translate(178,219)"/>
<path d="M0 0 C1.5 1.375 1.5 1.375 3 3 C3 3.66 3 4.32 3 5 C3.66 5.33 4.32 5.66 5 6 C5.73516298 7.43489642 6.41310138 8.89930566 7.0625 10.375 C9.69054219 15.86855808 13.22371836 20.17536334 17.20703125 24.75 C19 27 19 27 19 29 C19.66 29 20.32 29 21 29 C20.67 29.99 20.34 30.98 20 32 C0 9.25409836 0 9.25409836 0 0 Z " fill="#081335" transform="translate(105,192)"/>
<path d="M0 0 C0.66 0.33 1.32 0.66 2 1 C-4.08247104 11.39693531 -10.48974562 20.45738723 -19 29 C-19.66 28.34 -20.32 27.68 -21 27 C-19.71034824 25.62437146 -18.37310707 24.29233607 -17 23 C-16.34 23 -15.68 23 -15 23 C-14.34 21.35 -13.68 19.7 -13 18 C-12.34 18 -11.68 18 -11 18 C-10.34 16.35 -9.68 14.7 -9 13 C-8.34 13 -7.68 13 -7 13 C-6.773125 12.34 -6.54625 11.68 -6.3125 11 C-4.59428642 7.07265467 -2.33225393 3.58739822 0 0 Z " fill="#081236" transform="translate(291,198)"/>
<path d="M0 0 C2.49584533 2.49584533 2.48231818 3.92686931 3 7.375 C3.59684112 11.37386338 3.59684112 11.37386338 5.0625 15.1015625 C6 17 6 17 6 21 C5.34 21 4.68 21 4 21 C1.53586089 15.85744882 0.58569525 11.66172072 0 6 C-0.33 5.67 -0.66 5.34 -1 5 C-1.66 6.98 -2.32 8.96 -3 11 C-3.33 11 -3.66 11 -4 11 C-4.49230769 4.6 -4.49230769 4.6 -2 1.5625 C-1.34 1.046875 -0.68 0.53125 0 0 Z " fill="#0D183C" transform="translate(114,120)"/>
<path d="M0 0 C4.27943406 0.19904344 5.72202966 0.72202966 8.8125 3.8125 C10.69880159 6.56111089 11.37291662 7.89155445 12 11 C13.15628906 11.29003906 13.15628906 11.29003906 14.3359375 11.5859375 C15.33882812 11.84632813 16.34171875 12.10671875 17.375 12.375 C18.37273437 12.63023437 19.37046875 12.88546875 20.3984375 13.1484375 C23 14 23 14 25 16 C19.69266757 17.53407634 16.86762857 16.02692939 12.15234375 13.52734375 C9.23310978 11.45580023 8.98299174 9.37025738 8 6 C5.98344073 4.4329654 3.91601194 3.21004927 1.6796875 1.98046875 C1.12539062 1.65691406 0.57109375 1.33335937 0 1 C0 0.67 0 0.34 0 0 Z " fill="#0A153A" transform="translate(207,170)"/>
<path d="M0 0 C1.98 0 3.96 0 6 0 C6 0.33 6 0.66 6 1 C4.35 1 2.7 1 1 1 C1.20625 1.556875 1.4125 2.11375 1.625 2.6875 C2.22077678 6.36145683 0.79768663 8.7824783 -1.1875 11.8125 C-4.13933731 13.74646238 -6.56704788 13.35513298 -10 13 C-14.13033518 11.17496818 -16.36136247 8.6159107 -19 5 C-16.97352539 5.99292743 -14.98733337 7.00735319 -13.03515625 8.140625 C-9.86028408 9.92609767 -7.81753655 11.0533176 -4.125 10.8125 C-0.76832748 7.94945579 -0.58362613 4.23346715 0 0 Z " fill="#0A1536" transform="translate(226,63)"/>
<path d="M0 0 C3.9923701 0.56504542 6.0856032 2.57011062 9.0625 5.1875 C14.34943652 9.64790736 19.81119461 12.94749444 26 16 C26 16.66 26 17.32 26 18 C21.19272785 16.64095163 17.63528265 14.6249054 13.5625 11.75 C12.99700439 11.35103516 12.43150879 10.95207031 11.84887695 10.54101562 C7.68309188 7.56964158 3.74536453 4.48406003 0 1 C0 0.67 0 0.34 0 0 Z " fill="#091436" transform="translate(128,226)"/>
<path d="M0 0 C0.66 0 1.32 0 2 0 C2.20625 0.78375 2.4125 1.5675 2.625 2.375 C3.77266261 5.2516646 3.77266261 5.2516646 6.75 6.125 C7.8225 6.41375 8.895 6.7025 10 7 C12 8 14 9 16 10 C18.23525035 10.68636625 18.23525035 10.68636625 20 11 C20 11.66 20 12.32 20 13 C22.475 13.495 22.475 13.495 25 14 C25 14.99 25 15.98 25 17 C22.09555404 15.79052794 19.20338504 14.55399805 16.3125 13.3125 C15.08756836 12.80299805 15.08756836 12.80299805 13.83789062 12.28320312 C7.62882136 9.59344437 2.66590053 6.54357404 0 0 Z " fill="#0B1639" transform="translate(119,142)"/>
<path d="M0 0 C0.66 0.99 1.32 1.98 2 3 C1.06409496 4.1055189 0.12620142 5.20935453 -0.8125 6.3125 C-1.33457031 6.92738281 -1.85664063 7.54226562 -2.39453125 8.17578125 C-3.87172469 9.85424679 -5.40039131 11.43882034 -7 13 C-7.5775 12.525625 -8.155 12.05125 -8.75 11.5625 C-10.92582084 10.0515133 -12.42602448 9.45963849 -15 9 C-15.33 6.69 -15.66 4.38 -16 2 C-14.87411986 2.95729916 -13.7493285 3.91587895 -12.625 4.875 C-11.99851563 5.40867187 -11.37203125 5.94234375 -10.7265625 6.4921875 C-9.44163349 7.61432007 -8.20628025 8.79371975 -7 10 C-2.94730899 5.36533599 -2.94730899 5.36533599 0 0 Z " fill="#0A153E" transform="translate(177,74)"/>
<path d="M0 0 C-0.66 1.65 -1.32 3.3 -2 5 C-5.63 4.67 -9.26 4.34 -13 4 C-12.67 2.68 -12.34 1.36 -12 0 C-3.42857143 -1.28571429 -3.42857143 -1.28571429 0 0 Z " fill="#101946" transform="translate(193,62)"/>
<path d="M0 0 C0.66 0.33 1.32 0.66 2 1 C1.52949219 1.50789063 1.05898437 2.01578125 0.57421875 2.5390625 C-6.49862835 10.35873196 -8.50704375 15.44597827 -8 26 C-8.99 26.33 -9.98 26.66 -11 27 C-11.99 26.34 -12.98 25.68 -14 25 C-14 24.34 -14 23.68 -14 23 C-12.68 23.33 -11.36 23.66 -10 24 C-10.04640625 23.3709375 -10.0928125 22.741875 -10.140625 22.09375 C-10.40595601 15.80161454 -9.73887912 11.17690956 -6 6 C-3.3125 3.625 -3.3125 3.625 -1 2 C-0.67 1.34 -0.34 0.68 0 0 Z " fill="#071032" transform="translate(172,112)"/>
<path d="M0 0 C0.598125 0.763125 1.19625 1.52625 1.8125 2.3125 C3.8160239 4.91860045 3.8160239 4.91860045 5.75 6.5625 C7 8 7 8 7 12 C8.4166747 13.7511573 8.4166747 13.7511573 10 15 C9.67 15.66 9.34 16.32 9 17 C7.68 16.67 6.36 16.34 5 16 C4.67 13.03 4.34 10.06 4 7 C3.01 7 2.02 7 1 7 C0.34 5.02 -0.32 3.04 -1 1 C-0.67 0.67 -0.34 0.34 0 0 Z " fill="#09153B" transform="translate(200,77)"/>
<path d="M0 0 C3.2949446 1.11555499 6.58531735 2.24403134 9.875 3.375 C10.81214844 3.69210938 11.74929687 4.00921875 12.71484375 4.3359375 C14.05869141 4.8 14.05869141 4.8 15.4296875 5.2734375 C16.25710449 5.55622559 17.08452148 5.83901367 17.93701172 6.13037109 C20 7 20 7 22 9 C16.14016367 8.48334032 11.39106117 7.24718923 6 4.9375 C5.32066406 4.65583984 4.64132813 4.37417969 3.94140625 4.08398438 C2.29060213 3.39808689 0.64474531 2.70030171 -1 2 C-0.67 1.34 -0.34 0.68 0 0 Z " fill="#091539" transform="translate(155,243)"/>
<path d="M0 0 C3 1 3 1 4 3 C4.99 3.33 5.98 3.66 7 4 C7.33 3.01 7.66 2.02 8 1 C8 3.97 8 6.94 8 10 C5.6875 9.875 5.6875 9.875 3 9 C0.97798569 5.79266696 0 3.80845564 0 0 Z " fill="#0F1D48" transform="translate(154,126)"/>
<path d="M0 0 C3.33485659 2.22323773 4.00549143 3.5791441 5.6875 7.125 C6.34298828 8.49011719 6.34298828 8.49011719 7.01171875 9.8828125 C7.33785156 10.58148438 7.66398437 11.28015625 8 12 C7.01 13.485 7.01 13.485 6 15 C2.63408134 13.55746343 0.48952921 11.66735273 -2 9 C-0.02 9.66 1.96 10.32 4 11 C3.12395445 7.98079579 3.12395445 7.98079579 1.4375 5.5 C0 3 0 3 0 0 Z " fill="#0C1A3D" transform="translate(280,107)"/>
<path d="M0 0 C0.680625 -0.00515625 1.36125 -0.0103125 2.0625 -0.015625 C4 0.25 4 0.25 7 2.25 C8.010625 2.559375 9.02125 2.86875 10.0625 3.1875 C13 4.25 13 4.25 15 7.25 C13.35303396 6.7747412 11.70745272 6.29468109 10.0625 5.8125 C9.14597656 5.54566406 8.22945312 5.27882813 7.28515625 5.00390625 C5 4.25 5 4.25 4 3.25 C0.1638778 3.10524067 -3.32307787 3.07338492 -7 4.25 C-7 3.59 -7 2.93 -7 2.25 C-4.00261059 0.25174039 -3.36652492 -0.02550398 0 0 Z " fill="#101A3F" transform="translate(185,69.75)"/>
<path d="M0 0 C2 1.375 2 1.375 4 3 C4 3.66 4 4.32 4 5 C4.66 5 5.32 5 6 5 C7.625 7.5 7.625 7.5 9 10 C6.50935112 10.68707555 4.62113708 11 2 11 C2.33 9.35 2.66 7.7 3 6 C2.01 5.34 1.02 4.68 0 4 C0 2.68 0 1.36 0 0 Z " fill="#091B49" transform="translate(128,209)"/>
<path d="M0 0 C2.31 0.33 4.62 0.66 7 1 C6.67 2.32 6.34 3.64 6 5 C0.25 5.125 0.25 5.125 -2 4 C-1.34 2.68 -0.68 1.36 0 0 Z " fill="#0C1433" transform="translate(177,147)"/>
<path d="M0 0 C0.99 0.33 1.98 0.66 3 1 C-8.73786408 10 -8.73786408 10 -12 10 C-10.61470538 6.5511936 -9.38628495 5.35649967 -6 3.875 C-3.43279162 2.7329698 -2.01800698 2.01800698 0 0 Z " fill="#081336" transform="translate(260,233)"/>
<path d="M0 0 C0.99 0.33 1.98 0.66 3 1 C1 4 1 4 -2 5 C-2.78375 5.804375 -3.5675 6.60875 -4.375 7.4375 C-6.92427486 9.92607784 -8.65213121 10.94781267 -12 12 C-11.67 11.34 -11.34 10.68 -11 10 C-10.34 10 -9.68 10 -9 10 C-9 9.34 -9 8.68 -9 8 C-7.5390625 6.4921875 -7.5390625 6.4921875 -5.625 4.875 C-4.99851562 4.33617187 -4.37203125 3.79734375 -3.7265625 3.2421875 C-2 2 -2 2 0 2 C0 1.34 0 0.68 0 0 Z " fill="#071030" transform="translate(266,214)"/>
<path d="M0 0 C3.39424973 1.39084968 4.77056508 2.76169454 6.5625 5.9375 C8.13262869 8.69166017 9.66661217 10.84246168 12 13 C7.61706416 12.27899757 6.04148829 10.17865359 3.328125 6.85546875 C1.77369958 4.683845 0.77407724 2.55445488 0 0 Z " fill="#0E173D" transform="translate(160,194)"/>
<path d="M0 0 C0.66 0 1.32 0 2 0 C2.75 2.75 2.75 2.75 3 6 C1.0625 8.375 1.0625 8.375 -1 10 C-1 9.01 -1 8.02 -1 7 C-1.020625 5.96875 -1.04125 4.9375 -1.0625 3.875 C-1 1 -1 1 0 0 Z " fill="#112256" transform="translate(151,154)"/>
<path d="M0 0 C0.66 0 1.32 0 2 0 C2 0.66 2 1.32 2 2 C0.4609375 3.18359375 0.4609375 3.18359375 -1.625 4.4375 C-2.34945312 4.87320313 -3.07390625 5.30890625 -3.8203125 5.7578125 C-6.49624086 7.28280393 -9.21819709 8.67864362 -12 10 C-12.66 9.34 -13.32 8.68 -14 8 C-13.07316406 7.50628906 -12.14632812 7.01257813 -11.19140625 6.50390625 C-9.98172045 5.85686501 -8.77208778 5.20972446 -7.5625 4.5625 C-6.95083984 4.23701172 -6.33917969 3.91152344 -5.70898438 3.57617188 C-2.66283794 2.06284858 -2.66283794 2.06284858 0 0 Z " fill="#050F32" transform="translate(252,226)"/>
<path d="M0 0 C0.66 0.33 1.32 0.66 2 1 C0.21761755 3.67357367 -0.92504971 4.91293957 -3.4375 6.75 C-4.03433594 7.19859375 -4.63117188 7.6471875 -5.24609375 8.109375 C-5.82488281 8.40328125 -6.40367187 8.6971875 -7 9 C-7.99 8.67 -8.98 8.34 -10 8 C-6.7 5.36 -3.4 2.72 0 0 Z " fill="#0B153C" transform="translate(139,66)"/>
<path d="M0 0 C0.66 0.33 1.32 0.66 2 1 C2.88339877 7.91995707 0.11868832 11.59422159 -4 17 C-4.65234375 15.17578125 -4.65234375 15.17578125 -5 13 C-3.73325949 11.53837633 -2.46244902 10.07943388 -1.1484375 8.66015625 C0.76041509 5.9007605 0.32140531 3.2140531 0 0 Z " fill="#071031" transform="translate(239,189)"/>
<path d="M0 0 C4.27943406 0.19904344 5.72202966 0.72202966 8.8125 3.8125 C11.64729194 7.94319683 11.64729194 7.94319683 12 11 C10.1765176 9.1765176 8.3628891 7.34655292 6.5625 5.5 C4.45708954 3.44594102 2.39843818 1.68778983 0 0 Z " fill="#071130" transform="translate(207,170)"/>
<path d="M0 0 C0.66 0 1.32 0 2 0 C4.78637633 4.1795645 3.79562512 6.14668677 3 11 C1.35 11.66 -0.3 12.32 -2 13 C-1.68804687 12.39671875 -1.37609375 11.7934375 -1.0546875 11.171875 C-0.66539062 10.37265625 -0.27609375 9.5734375 0.125 8.75 C0.51945313 7.96109375 0.91390625 7.1721875 1.3203125 6.359375 C2.26034341 3.98788993 2.26034341 3.98788993 1.1171875 1.703125 C0.56417969 0.86007813 0.56417969 0.86007813 0 0 Z " fill="#0B1539" transform="translate(161,169)"/>
<path d="M0 0 C0.33 0 0.66 0 1 0 C1.05447047 1.41623216 1.09300508 2.83308191 1.125 4.25 C1.14820313 5.03890625 1.17140625 5.8278125 1.1953125 6.640625 C0.9828378 9.20731941 0.28654105 10.7916067 -1 13 C-1 11.68 -1 10.36 -1 9 C-1.66 8.67 -2.32 8.34 -3 8 C-2.01 5.36 -1.02 2.72 0 0 Z " fill="#0A153D" transform="translate(301,164)"/>
<path d="M0 0 C0.33 0.66 0.66 1.32 1 2 C2.32 2 3.64 2 5 2 C5 2.99 5 3.98 5 5 C3.35 5.33 1.7 5.66 0 6 C-0.66 4.68 -1.32 3.36 -2 2 C-1.34 1.34 -0.68 0.68 0 0 Z " fill="#0B1B4A" transform="translate(243,239)"/>
<path d="M0 0 C1.64936913 0.78427352 3.29441127 1.57765259 4.9375 2.375 C5.85402344 2.81585938 6.77054688 3.25671875 7.71484375 3.7109375 C10 5 10 5 11 7 C9.53633658 6.60246179 8.0791065 6.18118616 6.625 5.75 C5.81289062 5.51796875 5.00078125 5.2859375 4.1640625 5.046875 C1.54214546 3.7785108 1.00617682 2.67576692 0 0 Z " fill="#051233" transform="translate(146,226)"/>
<path d="M0 0 C0.515625 0.268125 1.03125 0.53625 1.5625 0.8125 C4.66401415 2.32349407 7.82262806 3.65572726 11 5 C10.34 5.66 9.68 6.32 9 7 C2.35384615 4.53846154 2.35384615 4.53846154 0.5625 1.8125 C0.376875 1.214375 0.19125 0.61625 0 0 Z " fill="#0A1435" transform="translate(148,163)"/>
<path d="M0 0 C1.98 0.66 3.96 1.32 6 2 C5.67 2.99 5.34 3.98 5 5 C3.02 5 1.04 5 -1 5 C-0.01 4.01 0.98 3.02 2 2 C1.34 2 0.68 2 0 2 C0 1.34 0 0.68 0 0 Z " fill="#071031" transform="translate(167,143)"/>
<path d="M0 0 C0.33 1.32 0.66 2.64 1 4 C-3.17587745 5.39195915 -5.13474776 3.82323219 -9 2 C-5.37673261 0.7922442 -4.35853631 1.45688872 -1 3 C-0.67 2.01 -0.34 1.02 0 0 Z " fill="#091030" transform="translate(210,94)"/>
<path d="M0 0 C0.66 1.32 1.32 2.64 2 4 C0.02 4.99 0.02 4.99 -2 6 C-2.66 4.68 -3.32 3.36 -4 2 C-2.68 2 -1.36 2 0 2 C0 1.34 0 0.68 0 0 Z " fill="#0E1B43" transform="translate(149,157)"/>
<path d="M0 0 C2 1.375 2 1.375 4 3 C4 3.66 4 4.32 4 5 C4.66 5 5.32 5 6 5 C6 5.66 6 6.32 6 7 C3.5625 6.3125 3.5625 6.3125 1 5 C0.1875 2.375 0.1875 2.375 0 0 Z " fill="#071136" transform="translate(128,209)"/>
<path d="M0 0 C2.475 0.495 2.475 0.495 5 1 C5.33 2.65 5.66 4.3 6 6 C5.01 6 4.02 6 3 6 C2.01 4.02 1.02 2.04 0 0 Z " fill="#041247" transform="translate(261,83)"/>
<path d="M0 0 C3.96 1.98 3.96 1.98 8 4 C8 4.66 8 5.32 8 6 C5.125 5.25 5.125 5.25 2 4 C1.34 2.68 0.68 1.36 0 0 Z " fill="#0A153E" transform="translate(146,238)"/>
<path d="M0 0 C0 3.99904969 -1.72586967 5.80200422 -4 9 C-4.66 8.34 -5.32 7.68 -6 7 C-4.02 4.69 -2.04 2.38 0 0 Z " fill="#09143C" transform="translate(128,75)"/>
<path d="M0 0 C0.66 0.33 1.32 0.66 2 1 C1.34 3.31 0.68 5.62 0 8 C-1.125 6.25 -1.125 6.25 -2 4 C-1.125 1.75 -1.125 1.75 0 0 Z " fill="#0B153D" transform="translate(200,63)"/>
</svg>
