<?xml version="1.0" encoding="UTF-8"?>
<svg version="1.1" xmlns="http://www.w3.org/2000/svg" width="400" height="300">
<path d="M0 0 C0.85722656 0.70769531 1.71445312 1.41539063 2.59765625 2.14453125 C23.11578922 19.74509354 35.35399364 44.15299349 38 71 C38.85306974 83.37816558 37.7928986 94.94988822 35 107 C34.81824219 108.00933594 34.63648438 109.01867187 34.44921875 110.05859375 C31.74900844 123.59638283 23.65332687 136.44831989 15 147 C14.20207031 147.97324219 13.40414062 148.94648438 12.58203125 149.94921875 C-3.92108595 169.3183887 -28.09512183 181.70784487 -53.3046875 184.72265625 C-81.94995001 186.87256496 -109.51949464 180.48988311 -132 162 C-132.97453125 161.20078125 -133.9490625 160.4015625 -134.953125 159.578125 C-154.68756398 142.76707175 -166.96831936 118.25587713 -169.625 92.5625 C-171.84840391 63.57739817 -164.68861132 36.52299881 -146 14 C-145.31421875 13.15050781 -144.6284375 12.30101562 -143.921875 11.42578125 C-126.66870405 -8.92657041 -101.34963972 -21.0262521 -75 -23.6875 C-47.61368347 -25.38711918 -21.09959628 -17.96444081 0 0 Z M-100 -4 C-101.66542376 -3.33023444 -103.33163105 -2.66239509 -105 -2 C-105.9491946 1.21326257 -105.9491946 1.21326257 -106 5 C-103.1844132 9.2233802 -99.98749223 11.86505241 -96 15 C-94.66094733 13.2126038 -93.32890934 11.41995047 -92 9.625 C-91.2575 8.62726563 -90.515 7.62953125 -89.75 6.6015625 C-87.8139515 4.24598283 -87.8139515 4.24598283 -88 2 C-81.54995879 -0.15001374 -76.12878299 0.71063194 -70.11328125 3.578125 C-67.01989666 5.65944106 -65.18476222 8.27849089 -63.19140625 11.390625 C-62.79824219 11.92171875 -62.40507812 12.4528125 -62 13 C-61.34 13 -60.68 13 -60 13 C-60 14.98 -60 16.96 -60 19 C-58.515 19.495 -58.515 19.495 -57 20 C-56.505 23.96 -56.505 23.96 -56 28 C-63.75 26.375 -63.75 26.375 -66 23 C-67.97747122 22.63702064 -67.97747122 22.63702064 -70.125 22.8125 C-71.40375 22.874375 -72.6825 22.93625 -74 23 C-72.36587557 24.70840281 -71.13093906 25.93453047 -69 27 C-68.67 27.99 -68.34 28.98 -68 30 C-68.52207031 30.17015625 -69.04414063 30.3403125 -69.58203125 30.515625 C-71.15896617 31.03482599 -72.73152665 31.56740324 -74.30078125 32.109375 C-76.09204406 32.70041396 -77.90380847 33.23274038 -79.73046875 33.703125 C-88.22322974 36.14674029 -91.94570865 40.9970662 -97 48 C-97.98787953 49.17694738 -98.98527749 50.34611554 -100 51.5 C-103.00386968 55.2548371 -103.11733737 58.02632326 -103.0625 62.6875 C-103.05347656 63.68136719 -103.04445313 64.67523438 -103.03515625 65.69921875 C-103.02355469 66.45847656 -103.01195312 67.21773438 -103 68 C-104.875 67.7421875 -104.875 67.7421875 -107 67 C-108.125 65.2578125 -108.125 65.2578125 -109 63.125 C-110.4172683 59.69571687 -111.73153998 57.85933861 -115 56 C-120.04769447 55.47471147 -123.9817395 56.21509087 -128 59.3125 C-131.58525161 64.13018185 -132.44763601 66.84500489 -132 73 C-131.34 73.99 -130.68 74.98 -130 76 C-127.12762267 76.58442963 -127.12762267 76.58442963 -124 76 C-122.30678061 74.70055256 -120.63604196 73.37073786 -119 72 C-118.01 72.33 -117.02 72.66 -116 73 C-116.66 75.31 -117.32 77.62 -118 80 C-115.94766315 82.2477975 -114.99332739 83.0022242 -112 84 C-111.855625 84.928125 -111.71125 85.85625 -111.5625 86.8125 C-111.07899889 90.00725111 -111.07899889 90.00725111 -110 93 C-106.84258099 94.5787095 -103.43424666 94.49737365 -100 94 C-98.62521484 93.25943359 -98.62521484 93.25943359 -97.22265625 92.50390625 C-93.44169446 90.73945741 -90.26975567 90.57970165 -86.1875 90.6875 C-85.48117432 90.70022949 -84.77484863 90.71295898 -84.04711914 90.72607422 C-75.44476532 90.96522064 -70.0785948 91.51899593 -63.82421875 97.5546875 C-61.70786077 99.23145935 -59.89973937 99.82811232 -57.3125 100.5625 C-53.14448603 101.76753805 -51.31411777 103.20484687 -49 107 C-48.72607422 107.67466309 -48.45214844 108.34932617 -48.16992188 109.04443359 C-46.65945689 111.56923003 -45.47910819 111.9243446 -42.71875 112.8515625 C-41.87699219 113.14546875 -41.03523438 113.439375 -40.16796875 113.7421875 C-39.28753906 114.03351563 -38.40710938 114.32484375 -37.5 114.625 C-35.75874818 115.21646475 -34.01907697 115.81260937 -32.28125 116.4140625 C-31.50845703 116.6713916 -30.73566406 116.9287207 -29.93945312 117.19384766 C-28 118 -28 118 -26 120 C-25.6505331 122.99543059 -25.45995288 125.09586907 -26 128 C-28.1875 130.6875 -28.1875 130.6875 -29.5703125 132.09375 C-32.21536824 135.62049099 -33.30908405 139.92725214 -34.69140625 144.07421875 C-36.65942247 148.47435055 -39.37986797 149.83764105 -43.6875 151.5625 C-47.45218763 153.36179923 -49.54435628 155.60574475 -52.1875 158.8125 C-57.25815727 164.81722571 -62.9642612 167.71593027 -70 171 C-69.67 171.66 -69.34 172.32 -69 173 C-44.22779169 172.46669089 -24.08359493 166.03021974 -5 150 C-4.14792969 149.34773437 -3.29585937 148.69546875 -2.41796875 148.0234375 C8.8525467 138.59189145 15.31823535 125.93406315 19 112 C19.19851563 111.29101562 19.39703125 110.58203125 19.6015625 109.8515625 C20.23407024 106.91226183 20.05755496 103.99285772 20 101 C18.69675781 101.16048828 18.69675781 101.16048828 17.3671875 101.32421875 C5.61129175 102.5471475 5.61129175 102.5471475 1 99 C-3.32866554 94.55109375 -5.05731381 90.02165878 -5.3125 83.875 C-4.90529836 70.99456905 0.84315526 56.99213481 9 47 C8.071875 46.7525 7.14375 46.505 6.1875 46.25 C2.66708985 44.869447 1.73255828 44.29186073 0 41 C-0.80854129 38.3455437 -1.41120514 35.71751476 -2 33 C0.97 32.505 0.97 32.505 4 32 C3.51792644 29.49641128 3.51792644 29.49641128 2 27 C-1.53514293 25.62032476 -1.53514293 25.62032476 -5 25 C-4.979375 23.989375 -4.95875 22.97875 -4.9375 21.9375 C-4.76649059 14.4271492 -4.76649059 14.4271492 -8.6328125 8.375 C-9.77920964 7.55796192 -10.94474089 6.76731092 -12.125 6 C-12.7422998 5.57992676 -13.35959961 5.15985352 -13.99560547 4.72705078 C-21.16601767 -0.00574581 -30.25762775 -6 -39 -6 C-39.103125 -4.9275 -39.20625 -3.855 -39.3125 -2.75 C-40.32459016 2.7704918 -40.32459016 2.7704918 -43 5 C-48.14221843 5.66658387 -50.78832337 4.84192162 -55 2 C-56.61339391 0.63902417 -58.19751134 -0.75743913 -59.75 -2.1875 C-62.05256258 -4.73255464 -62.05256258 -4.73255464 -65 -6 C-65.66 -3.69 -66.32 -1.38 -67 1 C-73.75 -0.75 -73.75 -0.75 -76 -3 C-78.43252661 -3.46162427 -78.43252661 -3.46162427 -81.125 -3.625 C-82.49011719 -3.73714844 -82.49011719 -3.73714844 -83.8828125 -3.8515625 C-84.58148438 -3.90054688 -85.28015625 -3.94953125 -86 -4 C-85.67 -5.32 -85.34 -6.64 -85 -8 C-83.02 -8 -81.04 -8 -79 -8 C-79 -8.33 -79 -8.66 -79 -9 C-86.83828843 -9.76845965 -92.86058645 -7.01665361 -100 -4 Z M14 40 C13.34 41.98 12.68 43.96 12 46 C13.423125 46.7115625 13.423125 46.7115625 14.875 47.4375 C16.58333333 48.29166667 18.29166667 49.14583333 20 50 C18.6302836 46.00499382 16.74277578 43.19990508 14 40 Z M-153 52 C-153.6536261 53.85143394 -154.29751218 55.70630758 -154.9375 57.5625 C-155.29714844 58.59503906 -155.65679687 59.62757813 -156.02734375 60.69140625 C-157.96517122 67.28313261 -158.15726982 73.69106899 -158.125 80.5 C-158.12886719 81.31597656 -158.13273437 82.13195312 -158.13671875 82.97265625 C-158.1014549 104.942035 -149.30558831 125.58141062 -135 142 C-134.22398437 142.97839844 -133.44796875 143.95679688 -132.6484375 144.96484375 C-130.04857958 148.08635282 -127.05855373 150.575272 -123.8125 153 C-123.23862549 153.43151367 -122.66475098 153.86302734 -122.07348633 154.30761719 C-112.83866932 161.16460706 -99.98724836 170 -88 170 C-87.67862695 165.50167618 -87.48461595 161.00630841 -87.3125 156.5 C-87.22033203 155.2315625 -87.12816406 153.963125 -87.03320312 152.65625 C-86.72555888 145.43173879 -86.72555888 145.43173879 -90.33276367 139.49536133 C-93.14685257 137.49895731 -96.02777187 135.74843218 -99 134 C-103.86380417 129.17655935 -107.44408062 124.31246822 -107.8125 117.3125 C-107.41830598 111.93291103 -105.33313015 108.15450865 -102 104 C-102.93545998 101.40743101 -102.93545998 101.40743101 -105 99 C-107.0504534 98.43185354 -108.94041067 98.25316004 -111.0625 98.140625 C-113 98 -113 98 -116 97 C-116 96.34 -116 95.68 -116 95 C-116.66 95 -117.32 95 -118 95 C-118.20625 94.443125 -118.4125 93.88625 -118.625 93.3125 C-122.69342697 86.47014555 -129.58548163 84.32889301 -136.66015625 81.625 C-144.28960758 77.91289268 -147.31575779 71.70005248 -150 64 C-150.89173197 60.01938202 -151.52637906 56.05051937 -152 52 C-152.33 52 -152.66 52 -153 52 Z " fill="#112844" transform="translate(266,70)"/>
<path d="M0 0 C1.32 0.66 2.64 1.32 4 2 C3.67 3.11375 3.34 4.2275 3 5.375 C1.911357 8.69459717 1.911357 8.69459717 2 11 C3.98 11.66 5.96 12.32 8 13 C9 18.75 9 18.75 9 21 C12.18855241 22.5942762 15.52924207 22.39070446 19 22 C21.00812926 21.01642648 23.00854609 20.01691264 25 19 C28.875 18.8125 28.875 18.8125 32 19 C31.360625 19.12375 30.72125 19.2475 30.0625 19.375 C29.381875 19.58125 28.70125 19.7875 28 20 C27.67 20.66 27.34 21.32 27 22 C25.17489003 22.78015621 23.31393324 23.47795406 21.4375 24.125 C20.42558594 24.47820312 19.41367188 24.83140625 18.37109375 25.1953125 C17.58863281 25.46085937 16.80617187 25.72640625 16 26 C16.75410156 27.15435547 16.75410156 27.15435547 17.5234375 28.33203125 C19.2893242 31.52277362 18.9222527 32.58766503 18 36 C18.33 36.66 18.66 37.32 19 38 C16.525 38.495 16.525 38.495 14 39 C12.69234522 42.92296433 12.8028583 45.86002433 13 50 C14.13584663 51.13584663 15.2911137 52.25472448 16.5 53.3125 C18.32341525 55.36384216 18.99907972 57.46433528 20 60 C20.99 60.495 20.99 60.495 22 61 C22.625 63.5625 22.625 63.5625 23 66 C17.15851053 61.68842444 11.92613192 56.61752298 10.44921875 49.25390625 C10.15578275 43.20912469 11.2717638 39.44490307 15.1015625 34.75390625 C16.25994064 32.9803669 16.25994064 32.9803669 15.39453125 30.81640625 C13.97230696 28.53278216 13.97230696 28.53278216 10.0625 28.375 C9.37285156 28.34148437 8.68320313 28.30796875 7.97265625 28.2734375 C6 28 6 28 3 26 C3 25.34 3 24.68 3 24 C2.34 24 1.68 24 1 24 C0.10243049 22.9523451 -0.74374295 21.8603372 -1.5625 20.75 C-5.01645655 16.52468839 -8.94229128 14.80953579 -14 13 C-12.68 12.34 -11.36 11.68 -10 11 C-9.67 11.66 -9.34 12.32 -9 13 C-7.88625 13.1546875 -7.88625 13.1546875 -6.75 13.3125 C-4 14 -4 14 -1.4375 16.625 C-0.633125 17.40875 0.17125 18.1925 1 19 C3.27523089 18.95502158 3.27523089 18.95502158 5 18 C5 17.01 5 16.02 5 15 C3.68 15.33 2.36 15.66 1 16 C0.855625 15.38125 0.71125 14.7625 0.5625 14.125 C0.06847775 11.96741678 0.06847775 11.96741678 -1 10 C-0.66015625 8.0546875 -0.66015625 8.0546875 -0.0625 5.875 C0.13214844 5.15054688 0.32679688 4.42609375 0.52734375 3.6796875 C0.68332031 3.12539062 0.83929688 2.57109375 1 2 C-0.32 2.33 -1.64 2.66 -3 3 C-2.01 2.01 -1.02 1.02 0 0 Z " fill="#132338" transform="translate(147,141)"/>
<path d="M0 0 C0.66 0 1.32 0 2 0 C1.54231166 4.92014964 0.60268238 7.57305822 -3 11 C-4.58629744 11.80696664 -6.19311285 12.57417759 -7.8125 13.3125 C-12.54066916 15.50697969 -15.06920735 18.05251367 -18.28515625 22.078125 C-21.04855366 25.17514442 -24.42562731 26.97091166 -28 29 C-29.17371913 29.76005167 -30.34116349 30.52994452 -31.5 31.3125 C-32.325 31.869375 -33.15 32.42625 -34 33 C-31.69 33 -29.38 33 -27 33 C-27 33.66 -27 34.32 -27 35 C-33.625 36 -33.625 36 -37 36 C-36.67 35.34 -36.34 34.68 -36 34 C-36.495 32.515 -36.495 32.515 -37 31 C-36.0625 28.3125 -36.0625 28.3125 -35 26 C-34.28070313 26.23074219 -33.56140625 26.46148437 -32.8203125 26.69921875 C-29.08071299 27.0980403 -27.85700335 26.0239245 -24.875 23.8125 C-24.02679688 23.20019531 -23.17859375 22.58789062 -22.3046875 21.95703125 C-20.12076397 20.10254703 -18.61832179 18.34656659 -17 16 C-13.95401633 12.23731429 -12.07806804 10.84551836 -7.375 10.25 C-5.02912819 9.96395535 -5.02912819 9.96395535 -3 9 C-1.31174203 6.13154915 -0.58359823 3.26010044 0 0 Z " fill="#112036" transform="translate(231,209)"/>
<path d="M0 0 C1.51400391 0.01740234 1.51400391 0.01740234 3.05859375 0.03515625 C4.07050781 0.04417969 5.08242187 0.05320312 6.125 0.0625 C7.29869141 0.07990234 7.29869141 0.07990234 8.49609375 0.09765625 C8.16609375 1.41765625 7.83609375 2.73765625 7.49609375 4.09765625 C10.41092153 4.90733063 11.95722592 5.31611618 14.80859375 4.16015625 C15.36546875 3.80953125 15.92234375 3.45890625 16.49609375 3.09765625 C16.16609375 4.74765625 15.83609375 6.39765625 15.49609375 8.09765625 C7.86532452 6.62073317 7.86532452 6.62073317 5.99609375 3.97265625 C5.74859375 3.04453125 5.74859375 3.04453125 5.49609375 2.09765625 C3.18609375 2.42765625 0.87609375 2.75765625 -1.50390625 3.09765625 C-0.26640625 3.74734375 -0.26640625 3.74734375 0.99609375 4.41015625 C1.82109375 4.96703125 2.64609375 5.52390625 3.49609375 6.09765625 C3.49609375 7.08765625 3.49609375 8.07765625 3.49609375 9.09765625 C1.66355503 9.87037675 -0.16998367 10.64072586 -2.00390625 11.41015625 C-3.64359375 12.09851563 -3.64359375 12.09851563 -5.31640625 12.80078125 C-7.86357416 13.83712898 -10.40315524 14.77353659 -13.00390625 15.66015625 C-16.41448645 17.06093026 -18.17803845 18.28723266 -20.50390625 21.09765625 C-20.83390625 19.77765625 -21.16390625 18.45765625 -21.50390625 17.09765625 C-14.6236732 13.50037704 -7.94769713 10.33079351 -0.50390625 8.09765625 C-0.83390625 8.09765625 -1.16390625 8.09765625 -1.50390625 8.09765625 C-2.83958646 7.77385499 -4.17313636 7.44108074 -5.50390625 7.09765625 C-3.27951797 0.12790632 -3.27951797 0.12790632 0 0 Z " fill="#112036" transform="translate(194.50390625,90.90234375)"/>
<path d="M0 0 C2 3 2 3 1.75 4.9375 C0.73875374 7.71842722 -0.59682566 10.27580761 -2.03515625 12.859375 C-4.64155478 17.65594111 -5.72212342 21.53509386 -6 27 C-5.67 27.99 -5.34 28.98 -5 30 C-5.66 30 -6.32 30 -7 30 C-7.12117188 30.78246094 -7.24234375 31.56492188 -7.3671875 32.37109375 C-7.53476563 33.38300781 -7.70234375 34.39492187 -7.875 35.4375 C-8.03742188 36.44683594 -8.19984375 37.45617187 -8.3671875 38.49609375 C-8.57601562 39.32238281 -8.78484375 40.14867187 -9 41 C-9.99 41.495 -9.99 41.495 -11 42 C-12.22893279 27.79899891 -6.74603793 13.74736414 -1 1 C-0.67 0.67 -0.34 0.34 0 0 Z " fill="#122336" transform="translate(108,102)"/>
<path d="M0 0 C1.98 0 3.96 0 6 0 C7.64802525 4.32820473 8.23933471 7.86985584 8.1953125 12.4921875 C8.18886719 13.69101563 8.18242187 14.88984375 8.17578125 16.125 C8.15902344 17.3625 8.14226562 18.6 8.125 19.875 C8.11597656 21.13570312 8.10695312 22.39640625 8.09765625 23.6953125 C8.07415808 26.7970704 8.04130334 29.89843652 8 33 C1.7351845 34.80256093 -4.48951309 32.23063084 -10.1875 29.4375 C-10.785625 28.963125 -11.38375 28.48875 -12 28 C-12 27.34 -12 26.68 -12 26 C-6 28 0 30 6 32 C5.97722961 27.41556125 5.89995665 22.8336252 5.8125 18.25 C5.80669922 16.94804687 5.80089844 15.64609375 5.79492188 14.3046875 C5.76591797 13.05429688 5.73691406 11.80390625 5.70703125 10.515625 C5.6913208 9.36352539 5.67561035 8.21142578 5.65942383 7.02441406 C4.81407132 3.14724751 3.25964455 2.1141188 0 0 Z " fill="#162236" transform="translate(172,208)"/>
<path d="M0 0 C0.33 0 0.66 0 1 0 C1.34494183 12.46900823 0.85586176 23.83324649 -2 36 C-2.25136719 37.17175781 -2.50273437 38.34351563 -2.76171875 39.55078125 C-4.73538535 48.27041942 -4.73538535 48.27041942 -8 51 C-8.6875 49.375 -8.6875 49.375 -9 47 C-8.01712992 44.99152635 -7.01622658 42.99180409 -6 41 C-5.74715633 38.24853726 -5.74715633 38.24853726 -6 36 C-5.34 36 -4.68 36 -4 36 C-4 35.0925 -4 34.185 -4 33.25 C-4 30.83333333 -4 28.41666667 -4 26 C-3.34 26 -2.68 26 -2 26 C-2.020625 24.865625 -2.04125 23.73125 -2.0625 22.5625 C-2 19 -2 19 -1 18 C-0.84417697 16.65984779 -0.74955858 15.31241097 -0.68359375 13.96484375 C-0.64169922 13.15595703 -0.59980469 12.34707031 -0.55664062 11.51367188 C-0.49766602 10.2384668 -0.49766602 10.2384668 -0.4375 8.9375 C-0.39431641 8.08349609 -0.35113281 7.22949219 -0.30664062 6.34960938 C-0.20023298 4.23327963 -0.09958269 2.11666187 0 0 Z " fill="#0F1D32" transform="translate(303,141)"/>
<path d="M0 0 C6.96050253 0.38669459 11.9394075 2.63438409 18 6 C17.67 6.99 17.34 7.98 17 9 C10.37822074 8.69343615 5.77874846 7.25711277 0 4 C0 2.68 0 1.36 0 0 Z " fill="#132134" transform="translate(155,139)"/>
<path d="M0 0 C1.91740583 0.78987473 3.83389641 1.58197148 5.75 2.375 C7.35101563 3.03628906 7.35101563 3.03628906 8.984375 3.7109375 C13.04251381 5.44563414 15.94846793 6.80238395 19 10 C20.14635253 10.90144994 21.31365703 11.77686884 22.5 12.625 C23.0878125 13.05039063 23.675625 13.47578125 24.28125 13.9140625 C26.12410751 15.17436317 26.12410751 15.17436317 29 16 C29.33 16.99 29.66 17.98 30 19 C29.67 19.33 29.34 19.66 29 20 C29.66 20 30.32 20 31 20 C30 23 30 23 27 25 C25 22 25 22 25.375 19.3125 C25.58125 18.549375 25.7875 17.78625 26 17 C25.43152344 16.73703125 24.86304688 16.4740625 24.27734375 16.203125 C21.83763678 14.91422321 19.77054995 13.40324482 17.5625 11.75 C11.76412396 7.61573188 5.52727921 4.79302073 -1 2 C-0.67 1.34 -0.34 0.68 0 0 Z " fill="#112134" transform="translate(234,64)"/>
<path d="M0 0 C2.70376322 2.62424078 5.17968164 5.22030501 7.5 8.1875 C14.53566162 16.49248201 24.57431067 22.76587003 34 28 C33.505 29.485 33.505 29.485 33 31 C29.92346162 29.97448721 29.19203004 29.19203004 27 27 C26.01 26.67 25.02 26.34 24 26 C22.33333333 24.33333333 20.66666667 22.66666667 19 21 C18.34 20.67 17.68 20.34 17 20 C14.09723433 18.54861717 12.22294172 16.33693873 10 14 C9.401875 13.443125 8.80375 12.88625 8.1875 12.3125 C7 11 7 11 7 9 C6.401875 8.773125 5.80375 8.54625 5.1875 8.3125 C2.40651597 6.64390958 1.4358084 4.8716168 0 2 C0 1.34 0 0.68 0 0 Z " fill="#101E31" transform="translate(125,205)"/>
<path d="M0 0 C4.95944107 0.59699316 9.84538098 0.68364122 14.8359375 0.66015625 C16.10920898 0.66595703 16.10920898 0.66595703 17.40820312 0.671875 C18.6234668 0.66994141 18.6234668 0.66994141 19.86328125 0.66796875 C20.591521 0.66684082 21.31976074 0.66571289 22.07006836 0.66455078 C23.99694684 0.64546689 23.99694684 0.64546689 25.8984375 -0.46484375 C28.0234375 0.47265625 28.0234375 0.47265625 29.8984375 1.53515625 C29.8984375 1.86515625 29.8984375 2.19515625 29.8984375 2.53515625 C24.32222007 3.32186864 18.9030537 3.72758694 13.2734375 3.72265625 C12.11352295 3.72362305 12.11352295 3.72362305 10.93017578 3.72460938 C3.79555515 3.66008249 -3.07548422 2.80030218 -10.1015625 1.53515625 C-10.1015625 1.20515625 -10.1015625 0.87515625 -10.1015625 0.53515625 C-6.56418507 -0.28116162 -3.56574963 -0.48987249 0 0 Z " fill="#142236" transform="translate(187.1015625,251.46484375)"/>
<path d="M0 0 C-1.46470588 3.72279412 -1.46470588 3.72279412 -3.75 4.90625 C-6.4956316 5.63079167 -9.23788475 6.33942378 -12 7 C-12.70979004 7.17595703 -13.41958008 7.35191406 -14.15087891 7.53320312 C-16.53468389 8.12081329 -18.92238423 8.68864109 -21.3125 9.25 C-22.47749023 9.53133789 -22.47749023 9.53133789 -23.66601562 9.81835938 C-27.76293574 10.74255657 -30.87723991 11.28373368 -35 10 C-35 9.34 -35 8.68 -35 8 C-34.07960937 7.90203125 -33.15921875 7.8040625 -32.2109375 7.703125 C-21.81830639 6.47548222 -9.66421179 0 0 0 Z " fill="#132032" transform="translate(240,234)"/>
<path d="M0 0 C2.89659753 0.32184417 5.31897331 0.61408488 7.875 2.0625 C9.7341371 5.26434722 9.74721454 8.4707456 9 12 C7.54691556 14.30576247 5.89608864 16.00910692 4 18 C4 18.66 4 19.32 4 20 C3.34 20 2.68 20 2 20 C2 20.66 2 21.32 2 22 C1.34 22 0.68 22 0 22 C1.74193548 14.16129032 1.74193548 14.16129032 4.625 11.5 C6.22061652 10.01932591 6.22061652 10.01932591 6.5 7.5 C6.25246237 4.75735705 6.25246237 4.75735705 3.5625 3.3125 C2.716875 2.879375 1.87125 2.44625 1 2 C0.67 1.34 0.34 0.68 0 0 Z " fill="#121F31" transform="translate(232,186)"/>
<path d="M0 0 C1.48206495 0.254496 2.96068615 0.52911762 4.4375 0.8125 C5.67306641 1.03873047 5.67306641 1.03873047 6.93359375 1.26953125 C7.95646484 1.63111328 7.95646484 1.63111328 9 2 C9.33 2.99 9.66 3.98 10 5 C10.86625 4.938125 11.7325 4.87625 12.625 4.8125 C16.47805221 5.02655846 18.63983518 6.17382346 22 8 C24.23525035 8.68636625 24.23525035 8.68636625 26 9 C26 9.66 26 10.32 26 11 C16.59824732 9.89258202 8.48835536 5.93876539 0 2 C0 1.34 0 0.68 0 0 Z " fill="#132235" transform="translate(150,241)"/>
<path d="M0 0 C-3.07629451 2.050863 -5.92826431 3.24138277 -9.375 4.5625 C-10.49648437 4.99691406 -11.61796875 5.43132812 -12.7734375 5.87890625 C-15.53172219 6.8372933 -18.12653052 7.52108842 -21 8 C-21.33 10.31 -21.66 12.62 -22 15 C-22.33 15 -22.66 15 -23 15 C-23.36725367 8.51185181 -23.36725367 8.51185181 -21.87890625 6.4375 C-15.91826762 1.87717772 -7.4701698 -0.86862439 0 0 Z " fill="#112036" transform="translate(182,60)"/>
<path d="M0 0 C2.475 0.495 2.475 0.495 5 1 C5 1.66 5 2.32 5 3 C5.598125 3.268125 6.19625 3.53625 6.8125 3.8125 C9.01741115 5.00945177 10.24452352 6.23587585 12 8 C13.16685217 8.92256686 14.35489285 9.81896181 15.5625 10.6875 C16.16191406 11.12449219 16.76132813 11.56148437 17.37890625 12.01171875 C18.96818189 13.17351142 18.96818189 13.17351142 21 13 C21.33 14.32 21.66 15.64 22 17 C18.09623069 15.63854309 15.30857315 13.87415934 12.125 11.25 C11.26390625 10.54230469 10.4028125 9.83460938 9.515625 9.10546875 C8.68546875 8.41066406 7.8553125 7.71585938 7 7 C6.27296875 6.39800781 5.5459375 5.79601562 4.796875 5.17578125 C3.17317467 3.81279703 1.58256038 2.41054295 0 1 C0 0.67 0 0.34 0 0 Z " fill="#132134" transform="translate(126,224)"/>
<path d="M0 0 C2 1 2 1 3.5 3.9375 C6.64160805 7.78596986 8.74721253 8.11959093 13.515625 8.83203125 C16.49063534 9.03317189 19.11728309 8.75860971 22 8 C22 8.66 22 9.32 22 10 C16.91384799 11.76458335 13.34042877 12.52583679 8 11 C4.22264045 8.62221988 1.46596093 6.42894686 0.0625 2.125 C0.041875 1.42375 0.02125 0.7225 0 0 Z " fill="#122130" transform="translate(262,161)"/>
<path d="M0 0 C0.33 0 0.66 0 1 0 C1.13277344 0.95261719 1.26554687 1.90523437 1.40234375 2.88671875 C1.66724609 4.76810547 1.66724609 4.76810547 1.9375 6.6875 C2.11152344 7.92886719 2.28554687 9.17023438 2.46484375 10.44921875 C3.31278702 16.07535328 4.65870173 21.279549 6.37890625 26.6953125 C7 29 7 29 7 32 C6.34 32 5.68 32 5 32 C4.35118552 29.45906145 3.70587101 26.91731727 3.0625 24.375 C2.88009766 23.66214844 2.69769531 22.94929688 2.50976562 22.21484375 C1.02674144 16.33667515 -0.14488264 10.72131506 -0.0625 4.625 C-0.05347656 3.75101563 -0.04445313 2.87703125 -0.03515625 1.9765625 C-0.02355469 1.32429687 -0.01195313 0.67203125 0 0 Z " fill="#0E1C31" transform="translate(107,153)"/>
<path d="M0 0 C0 0.66 0 1.32 0 2 C-1.8253125 2.0928125 -1.8253125 2.0928125 -3.6875 2.1875 C-6.88181117 2.61717725 -8.09849989 3.06638036 -10.875 4.9375 C-13.74676812 9.07622464 -14.35828981 13.06745151 -15 18 C-15.33 18 -15.66 18 -16 18 C-17.12029814 12.51053913 -16.79217969 9.16569441 -15 4 C-14.34 4 -13.68 4 -13 4 C-12.67 3.34 -12.34 2.68 -12 2 C-10.29296875 1.11328125 -10.29296875 1.11328125 -8.1875 0.3125 C-7.50042969 0.04050781 -6.81335938 -0.23148437 -6.10546875 -0.51171875 C-3.70623504 -1.06812731 -2.3105636 -0.77364938 0 0 Z " fill="#111F32" transform="translate(149,125)"/>
<path d="M0 0 C0.99 0.66 1.98 1.32 3 2 C0.67127542 2.99152726 -1.6620497 3.96816007 -4 4.9375 C-4.64839844 5.21529297 -5.29679688 5.49308594 -5.96484375 5.77929688 C-10.67534807 7.71480112 -14.92472444 8.55251477 -20 9 C-19.360625 8.71125 -18.72125 8.4225 -18.0625 8.125 C-15.84793921 7.17176549 -15.84793921 7.17176549 -15 5 C-13.07287963 4.5016068 -11.14291627 4.01124991 -9.19921875 3.58203125 C-7.03383576 3.00895476 -5.19918658 2.22367346 -3.1875 1.25 C-2.135625 0.8375 -1.08375 0.425 0 0 Z " fill="#0F1D33" transform="translate(243,243)"/>
<path d="M0 0 C0.33 0 0.66 0 1 0 C1.04898438 0.67546875 1.09796875 1.3509375 1.1484375 2.046875 C1.22320312 2.93890625 1.29796875 3.8309375 1.375 4.75 C1.44460937 5.63171875 1.51421875 6.5134375 1.5859375 7.421875 C1.85353228 9.97701435 1.85353228 9.97701435 3.03125 11.9375 C4.36427788 14.77555936 4.19272814 17.13450571 4.125 20.25 C4.10695313 21.32765625 4.08890625 22.4053125 4.0703125 23.515625 C4.04710938 24.33546875 4.02390625 25.1553125 4 26 C3.34 26 2.68 26 2 26 C0.6786742 17.2580141 -0.33165588 8.862582 0 0 Z " fill="#122333" transform="translate(96,146)"/>
<path d="M0 0 C0.66 0.33 1.32 0.66 2 1 C2 2.98 2 4.96 2 7 C0.375 8.1875 0.375 8.1875 -2 9 C-5.64946678 7.58490064 -8.44395609 5.98205122 -11 3 C-7.85375007 2.73781251 -6.38162983 2.75245633 -3.6875 4.5 C-2.8521875 5.2425 -2.8521875 5.2425 -2 6 C-1.34 4.02 -0.68 2.04 0 0 Z " fill="#132434" transform="translate(199,63)"/>
<path d="M0 0 C6.68993219 0.53951066 12.63460728 1.88706171 19 4 C18.01 4.66 17.02 5.32 16 6 C14.88625 5.67 13.7725 5.34 12.625 5 C8.70024276 3.91730835 7.48370954 4.0997948 4 6 C3.34 5.01 2.68 4.02 2 3 C1.67 2.67 1.34 2.34 1 2 C0.67 1.34 0.34 0.68 0 0 Z " fill="#111F37" transform="translate(216,48)"/>
<path d="M0 0 C3 1 3 1 4.5703125 3.9140625 C5.09990118 5.14622108 5.61769354 6.38350128 6.125 7.625 C6.64320313 8.83414063 7.16140625 10.04328125 7.6953125 11.2890625 C8.99869199 14.9962796 9.59096412 18.11914737 10 22 C7.47857414 19.47857414 6.79710752 17.15478641 5.5625 13.8125 C3.81560268 9.15066159 2.0117547 4.55291854 0 0 Z " fill="#0F2032" transform="translate(290,102)"/>
<path d="M0 0 C0.66 0.33 1.32 0.66 2 1 C-2.79894631 4.73943868 -7.52354781 8.31546461 -13 11 C-13.99 10.67 -14.98 10.34 -16 10 C-11.9091181 6.81820297 -7.62552593 4.31276297 -3 2 C-2.01 1.34 -1.02 0.68 0 0 Z " fill="#0E1E35" transform="translate(261,233)"/>
<path d="M0 0 C0.66 0 1.32 0 2 0 C1.83628906 0.70511719 1.67257813 1.41023438 1.50390625 2.13671875 C0.98300176 5.09658688 0.90133268 7.81061273 0.9375 10.8125 C0.94652344 11.78832031 0.95554688 12.76414063 0.96484375 13.76953125 C0.97644531 14.50558594 0.98804688 15.24164063 1 16 C-0.32 16 -1.64 16 -3 16 C-2.835 15.175 -2.67 14.35 -2.5 13.5 C-1.94103955 9.58727683 -1.93192813 5.94816827 -2 2 C-1.34 2 -0.68 2 0 2 C0 1.34 0 0.68 0 0 Z " fill="#101F35" transform="translate(163,122)"/>
<path d="M0 0 C2.64890475 3.3172438 4.66461342 6.83479077 6.6875 10.5625 C7.31011719 11.69816406 7.93273437 12.83382812 8.57421875 14.00390625 C10 17 10 17 10 20 C6.05966085 15.24441827 2.88915374 11.2240762 2 5 C1.34 5 0.68 5 0 5 C0 3.35 0 1.7 0 0 Z " fill="#0D1C2E" transform="translate(114,185)"/>
<path d="M0 0 C1.9375 0.625 1.9375 0.625 4 2 C4.38133299 3.9914056 4.71325582 5.99279077 5 8 C6.47890069 9.73026102 6.47890069 9.73026102 8 11 C8 11.66 8 12.32 8 13 C6.02 12.34 4.04 11.68 2 11 C2.0928125 9.63875 2.0928125 9.63875 2.1875 8.25 C1.98327924 4.71017358 1.35448165 3.55068845 -1 1 C-0.67 0.67 -0.34 0.34 0 0 Z " fill="#101E34" transform="translate(202,81)"/>
<path d="M0 0 C0.33 0.66 0.66 1.32 1 2 C0.52949219 2.51949219 0.05898437 3.03898437 -0.42578125 3.57421875 C-3.67440177 7.21294277 -6.69660472 10.66419713 -9 15 C-9.99 14.67 -10.98 14.34 -12 14 C-10.75314243 12.41419086 -9.50236974 10.8314596 -8.25 9.25 C-7.20585938 7.92742187 -7.20585938 7.92742187 -6.140625 6.578125 C-4.20054103 4.24152752 -2.18487814 2.1061438 0 0 Z " fill="#132134" transform="translate(129,74)"/>
<path d="M0 0 C2.31 0.33 4.62 0.66 7 1 C6.67 2.32 6.34 3.64 6 5 C0.25 5.125 0.25 5.125 -2 4 C-1.34 2.68 -0.68 1.36 0 0 Z " fill="#131F2F" transform="translate(177,147)"/>
<path d="M0 0 C1.32 0.66 2.64 1.32 4 2 C3.67 3.11375 3.34 4.2275 3 5.375 C1.911357 8.69459717 1.911357 8.69459717 2 11 C3.65 11.33 5.3 11.66 7 12 C7 12.33 7 12.66 7 13 C4.125 13.1875 4.125 13.1875 1 13 C-1 10 -1 10 -0.7578125 7.95703125 C-0.171875 5.97135417 0.4140625 3.98567708 1 2 C-0.32 2.33 -1.64 2.66 -3 3 C-2.01 2.01 -1.02 1.02 0 0 Z " fill="#0F1A2B" transform="translate(147,141)"/>
<path d="M0 0 C4.52615993 3.67832017 8.39424999 7.41086363 12 12 C11.67 12.66 11.34 13.32 11 14 C9.34190442 12.61875523 7.69889493 11.21938652 6.0625 9.8125 C5.14597656 9.03519531 4.22945313 8.25789063 3.28515625 7.45703125 C0.85829828 4.84764038 0.29156698 3.49260024 0 0 Z " fill="#131F37" transform="translate(271,75)"/>
<path d="M0 0 C0.66 0.33 1.32 0.66 2 1 C1.01 2.485 1.01 2.485 0 4 C-1.99422795 4.36628677 -3.99453311 4.70131344 -6 5 C-6.33 5.66 -6.66 6.32 -7 7 C-8.64363134 7.72159424 -10.31050386 8.39351421 -12 9 C-12 8.01 -12 7.02 -12 6 C-10.04669132 4.96958487 -8.08718472 3.9509107 -6.125 2.9375 C-5.03445312 2.36902344 -3.94390625 1.80054688 -2.8203125 1.21484375 C-1.42425781 0.61349609 -1.42425781 0.61349609 0 0 Z " fill="#121F34" transform="translate(160,54)"/>
<path d="M0 0 C0.33 0.99 0.66 1.98 1 3 C0.06027344 3.61488281 0.06027344 3.61488281 -0.8984375 4.2421875 C-1.71570313 4.78101562 -2.53296875 5.31984375 -3.375 5.875 C-4.59316406 6.67550781 -4.59316406 6.67550781 -5.8359375 7.4921875 C-8.07594096 8.95865055 -8.07594096 8.95865055 -10 11 C-10.99 10.67 -11.98 10.34 -13 10 C-4.738041 2.51708428 -4.738041 2.51708428 0 0 Z " fill="#111F33" transform="translate(145,62)"/>
<path d="M0 0 C6 2 12 4 18 6 C18 6.33 18 6.66 18 7 C11.73236121 7.53341607 7.55215917 5.8156571 2 3 C1.34 2.67 0.68 2.34 0 2 C0 1.34 0 0.68 0 0 Z " fill="#0F1E30" transform="translate(160,234)"/>
<path d="M0 0 C3.42211779 3.32146726 6.54509652 6.76172576 9.5703125 10.44921875 C11.11481807 12.24681775 11.11481807 12.24681775 14 14 C13.67 14.66 13.34 15.32 13 16 C10.95880212 14.38405168 8.95927063 12.7143618 7 11 C7 10.34 7 9.68 7 9 C6.401875 8.773125 5.80375 8.54625 5.1875 8.3125 C2.40651597 6.64390958 1.4358084 4.8716168 0 2 C0 1.34 0 0.68 0 0 Z " fill="#0D1828" transform="translate(125,205)"/>
<path d="M0 0 C4.33889229 0.50064142 6.81003171 3.21726171 10 6 C10.99 6.66 11.98 7.32 13 8 C11.35 8.66 9.7 9.32 8 10 C8 9.01 8 8.02 8 7 C6.68 6.34 5.36 5.68 4 5 C4 4.34 4 3.68 4 3 C2.35 2.67 0.7 2.34 -1 2 C-0.67 1.34 -0.34 0.68 0 0 Z " fill="#111F33" transform="translate(194,162)"/>
<path d="M0 0 C-0.99 0.33 -1.98 0.66 -3 1 C-3.33 1.66 -3.66 2.32 -4 3 C-5.36125 2.938125 -5.36125 2.938125 -6.75 2.875 C-9.8782046 2.99531556 -11.38614006 3.3914708 -14 5 C-14.66 4.01 -15.32 3.02 -16 2 C-14.08654673 1.46748234 -12.1690705 0.94940517 -10.25 0.4375 C-9.18265625 0.14746094 -8.1153125 -0.14257812 -7.015625 -0.44140625 C-4.15664073 -0.97098494 -2.68402617 -0.98370862 0 0 Z " fill="#112035" transform="translate(184,49)"/>
<path d="M0 0 C1.32 0.33 2.64 0.66 4 1 C2.90344712 2.31886772 1.79746577 3.62990057 0.6875 4.9375 C0.07261719 5.66839844 -0.54226563 6.39929688 -1.17578125 7.15234375 C-3 9 -3 9 -6 10 C-5.67 9.01 -5.34 8.02 -5 7 C-4.34 7 -3.68 7 -3 7 C-2.690625 6.21625 -2.38125 5.4325 -2.0625 4.625 C-1 2 -1 2 0 0 Z " fill="#111F37" transform="translate(274,219)"/>
<path d="M0 0 C0.66 0.99 1.32 1.98 2 3 C1.4225 3.48210937 0.845 3.96421875 0.25 4.4609375 C-0.4925 5.09257812 -1.235 5.72421875 -2 6.375 C-2.7425 7.00148437 -3.485 7.62796875 -4.25 8.2734375 C-4.8275 8.84320313 -5.405 9.41296875 -6 10 C-6 10.66 -6 11.32 -6 12 C-6.99 12 -7.98 12 -9 12 C-7.55575365 8.76138697 -5.74227753 6.38030837 -3.375 3.75 C-2.74335938 3.04359375 -2.11171875 2.3371875 -1.4609375 1.609375 C-0.97882813 1.07828125 -0.49671875 0.5471875 0 0 Z " fill="#101D2D" transform="translate(275,204)"/>
<path d="M0 0 C0.66 0 1.32 0 2 0 C2.33 0.99 2.66 1.98 3 3 C6.34329469 4.19351312 6.34329469 4.19351312 10 5 C11.2065625 5.309375 11.2065625 5.309375 12.4375 5.625 C12.953125 5.74875 13.46875 5.8725 14 6 C13 7 13 7 9.75 7.25 C5.79596338 6.98639756 4.09629244 6.38856845 1 4 C0.34 3.01 -0.32 2.02 -1 1 C-0.67 0.67 -0.34 0.34 0 0 Z " fill="#162336" transform="translate(210,69)"/>
<path d="M0 0 C0.66 0.33 1.32 0.66 2 1 C1.66666667 2.33333333 1.33333333 3.66666667 1 5 C0.87625 5.680625 0.7525 6.36125 0.625 7.0625 C-0.12463421 9.38636606 -1.22039344 10.36869399 -3 12 C-3.33 12.66 -3.66 13.32 -4 14 C-4.66 14 -5.32 14 -6 14 C-4.16508812 9.25981099 -2.08058541 4.63586749 0 0 Z " fill="#102134" transform="translate(282,190)"/>
<path d="M0 0 C1.79379098 0.44994757 3.58498928 0.91024143 5.375 1.375 C6.37273437 1.63023437 7.37046875 1.88546875 8.3984375 2.1484375 C11 3 11 3 13 5 C12.01 5.66 11.02 6.32 10 7 C9.46375 6.54625 8.9275 6.0925 8.375 5.625 C5.68301698 3.78311688 3.11479612 2.92028067 0 2 C0 1.34 0 0.68 0 0 Z " fill="#112237" transform="translate(219,181)"/>
<path d="M0 0 C1.89363878 3.28230722 2.4560776 6.27024643 3 10 C3.31674575 11.33737094 3.64270064 12.67288808 4 14 C3.34 14 2.68 14 2 14 C-0.19790854 9.42102388 -1.49432386 6.19040052 -1 1 C-0.67 0.67 -0.34 0.34 0 0 Z " fill="#162335" transform="translate(116,127)"/>
<path d="M0 0 C1.44096586 0.42594588 2.87768712 0.86626633 4.3125 1.3125 C5.11300781 1.55613281 5.91351563 1.79976563 6.73828125 2.05078125 C9.14816739 3.06218424 10.41941979 3.92836574 12 6 C12 6.99 12 7.98 12 9 C11.34 9 10.68 9 10 9 C9.34 7.35 8.68 5.7 8 4 C6.68 4.33 5.36 4.66 4 5 C4 4.34 4 3.68 4 3 C2.68 2.67 1.36 2.34 0 2 C0 1.34 0 0.68 0 0 Z " fill="#152335" transform="translate(189,71)"/>
<path d="M0 0 C0.33 0.66 0.66 1.32 1 2 C1.66 2 2.32 2 3 2 C2.71125 2.556875 2.4225 3.11375 2.125 3.6875 C0.9586747 6.08494645 -0.0339881 8.51596939 -1 11 C-1.66 10.67 -2.32 10.34 -3 10 C-2.49287967 6.28111761 -1.88391785 3.26545761 0 0 Z " fill="#142237" transform="translate(265,133)"/>
<path d="M0 0 C1.32 0.33 2.64 0.66 4 1 C4 3.97 4 6.94 4 10 C4.66 10.33 5.32 10.66 6 11 C5.01 11 4.02 11 3 11 C0.43383368 7.15075052 0.44902324 4.5650696 0 0 Z " fill="#152535" transform="translate(264,103)"/>
<path d="M0 0 C4.8333472 -0.08333357 9.23692563 0.04738513 14 1 C13.01 1.495 13.01 1.495 12 2 C12 2.66 12 3.32 12 4 C10.68 4.33 9.36 4.66 8 5 C7.67 3.68 7.34 2.36 7 1 C4.69 1 2.38 1 0 1 C0 0.67 0 0.34 0 0 Z " fill="#142438" transform="translate(180,160)"/>
<path d="M0 0 C2.64 0.33 5.28 0.66 8 1 C8 2.32 8 3.64 8 5 C5.36 4.67 2.72 4.34 0 4 C0 2.68 0 1.36 0 0 Z " fill="#1A263A" transform="translate(155,139)"/>
<path d="M0 0 C1.32 0.33 2.64 0.66 4 1 C3.01 1.33 2.02 1.66 1 2 C1.226875 2.53625 1.45375 3.0725 1.6875 3.625 C2.13958145 7.06081901 0.67178015 9.05766694 -1 12 C-2.07318928 8.78043217 -1.870689 8.09578311 -1 5 C-1 4.01 -1 3.02 -1 2 C-0.67 1.34 -0.34 0.68 0 0 Z " fill="#102238" transform="translate(226,62)"/>
<path d="M0 0 C0.66 0.33 1.32 0.66 2 1 C1.04901734 2.98270912 0.08899297 4.96108379 -0.875 6.9375 C-1.40867187 8.03964844 -1.94234375 9.14179688 -2.4921875 10.27734375 C-4 13 -4 13 -6 14 C-2.81818182 4.22727273 -2.81818182 4.22727273 0 0 Z " fill="#111D30" transform="translate(293,193)"/>
<path d="M0 0 C-0.66 0 -1.32 0 -2 0 C-2 0.99 -2 1.98 -2 3 C-6.455 4.485 -6.455 4.485 -11 6 C-11.33 5.34 -11.66 4.68 -12 4 C-10.56988027 3.13353333 -9.13059381 2.28218171 -7.6875 1.4375 C-6.48673828 0.72400391 -6.48673828 0.72400391 -5.26171875 -0.00390625 C-3 -1 -3 -1 0 0 Z " fill="#102032" transform="translate(252,229)"/>
<path d="M0 0 C0.66 0.33 1.32 0.66 2 1 C0.87970983 2.48273699 -0.24638618 3.96108886 -1.375 5.4375 C-2.00148438 6.26121094 -2.62796875 7.08492187 -3.2734375 7.93359375 C-5 10 -5 10 -7 11 C-3.57894737 1.78947368 -3.57894737 1.78947368 0 0 Z " fill="#122034" transform="translate(285,208)"/>
<path d="M0 0 C0.33 0 0.66 0 1 0 C0.67 5.94 0.34 11.88 0 18 C-0.33 18 -0.66 18 -1 18 C-1 15.03 -1 12.06 -1 9 C-1.66 8.67 -2.32 8.34 -3 8 C-2.01 5.36 -1.02 2.72 0 0 Z " fill="#0E1E2F" transform="translate(108,134)"/>
<path d="M0 0 C1.37562854 1.28965176 2.70766393 2.62689293 4 4 C4 4.66 4 5.32 4 6 C4.99 6.33 5.98 6.66 7 7 C6.67 8.32 6.34 9.64 6 11 C4.99126984 9.73608512 3.99328178 8.46359117 3 7.1875 C2.443125 6.47980469 1.88625 5.77210938 1.3125 5.04296875 C0 3 0 3 0 0 Z " fill="#122134" transform="translate(113,206)"/>
<path d="M0 0 C0.66 0.33 1.32 0.66 2 1 C1.34 3.64 0.68 6.28 0 9 C-0.99 8.67 -1.98 8.34 -3 8 C-2.74438677 5.6568787 -2.40729228 3.32156597 -2 1 C-1.34 0.67 -0.68 0.34 0 0 Z " fill="#122136" transform="translate(286,182)"/>
<path d="M0 0 C0.8968714 2.6906142 1.27859126 4.88897096 1.5625 7.6875 C1.64628906 8.49574219 1.73007812 9.30398437 1.81640625 10.13671875 C1.87699219 10.75160156 1.93757813 11.36648437 2 12 C1.01 12.495 1.01 12.495 0 13 C-1.18306728 10.63386544 -1.13354608 9.13219264 -1.125 6.5 C-1.12757813 5.7059375 -1.13015625 4.911875 -1.1328125 4.09375 C-1 2 -1 2 0 0 Z " fill="#121F31" transform="translate(261,147)"/>
<path d="M0 0 C0.33 1.32 0.66 2.64 1 4 C-2.76624671 5.25541557 -4.37188934 4.37061958 -8 3 C-8 2.34 -8 1.68 -8 1 C-6.8553125 1.309375 -6.8553125 1.309375 -5.6875 1.625 C-2.78114056 2.33391203 -2.78114056 2.33391203 0 0 Z " fill="#111C2C" transform="translate(210,94)"/>
<path d="M0 0 C4.7517398 0.43197635 6.92000054 1.32769295 10 5 C9.67 5.66 9.34 6.32 9 7 C7 5.625 7 5.625 5 4 C5 3.34 5 2.68 5 2 C3.35 2 1.7 2 0 2 C0 1.34 0 0.68 0 0 Z " fill="#141F32" transform="translate(207,170)"/>
<path d="M0 0 C0.66 0.33 1.32 0.66 2 1 C0.87895467 2.31587941 -0.24696965 3.62760353 -1.375 4.9375 C-2.00148437 5.66839844 -2.62796875 6.39929688 -3.2734375 7.15234375 C-5 9 -5 9 -7 10 C-5.33248852 6.05860922 -2.77289351 3.2107188 0 0 Z " fill="#121E36" transform="translate(172,112)"/>
<path d="M0 0 C0 1.32 0 2.64 0 4 C-2.31 3.67 -4.62 3.34 -7 3 C-7 2.34 -7 1.68 -7 1 C-4.53721199 -0.231394 -2.7204945 -0.07159196 0 0 Z " fill="#121B2F" transform="translate(187,63)"/>
<path d="M0 0 C3.7952131 1.49097658 5.61042731 3.75700849 8 7 C7.01 7.33 6.02 7.66 5 8 C0 2.25 0 2.25 0 0 Z " fill="#0E1C2D" transform="translate(143,157)"/>
<path d="M0 0 C0.4125 0.61875 0.825 1.2375 1.25 1.875 C3.05573879 4.06768281 4.4090534 4.92788417 7 6 C4 7 4 7 1.875 6.25 C0 5 0 5 -1 2 C-0.67 1.34 -0.34 0.68 0 0 Z " fill="#131E2C" transform="translate(277,112)"/>
<path d="M0 0 C2 1 2 1 2 1 Z " fill="#000000" transform="translate(192,45)"/>
<path d="" fill="#000000" transform="translate(0,0)"/>
</svg>
