<?xml version="1.0" standalone="no"?><!DOCTYPE svg PUBLIC "-//W3C//DTD SVG 1.1//EN" "http://www.w3.org/Graphics/SVG/1.1/DTD/svg11.dtd"><svg t="1746858189151" class="icon" viewBox="0 0 1024 1024" version="1.1" xmlns="http://www.w3.org/2000/svg" p-id="10409" xmlns:xlink="http://www.w3.org/1999/xlink" width="200" height="200"><path d="M668.562403 596.696962l34.69193-76.999161a459.456534 459.456534 0 0 0-152.306034-38.922653 241.997364 241.997364 0 1 0-78.69145 0A532.224972 532.224972 0 0 0 5.185013 1024h84.614463a443.379786 443.379786 0 0 1 423.072315-462.841112 389.22653 389.22653 0 0 1 155.690612 35.538074z m-313.919658-355.380744A156.536756 156.536756 0 1 1 512.871791 397.852974a156.536756 156.536756 0 0 1-158.229046-156.536756z" fill="#4F4A4A" p-id="10410"></path><path d="M836.945184 599.235396l-59.230124 60.922413 28.768917 27.922773H492.56432v84.614463h522.071236l-177.690372-173.459649zM1018.866279 836.155892H496.795043l174.305794 169.228926 59.230124-60.922413-25.384339-23.69205h313.919657v-84.614463z" fill="#4F4A4A" p-id="10411"></path></svg>