<?xml version="1.0" standalone="no"?><!DOCTYPE svg PUBLIC "-//W3C//DTD SVG 1.1//EN" "http://www.w3.org/Graphics/SVG/1.1/DTD/svg11.dtd"><svg t="1747625661130" class="icon" viewBox="0 0 1024 1024" version="1.1" xmlns="http://www.w3.org/2000/svg" p-id="4980" xmlns:xlink="http://www.w3.org/1999/xlink" width="200" height="200"><path d="M317.44 92.16H307.2c5.632 0 10.24-4.608 10.24-10.24v10.24h389.12V81.92c0 5.632 4.608 10.24 10.24 10.24h-10.24V184.32H798.72V81.92c0-45.17888-36.74112-81.92-81.92-81.92H307.2c-45.17888 0-81.92 36.74112-81.92 81.92v102.4h92.16V92.16zM962.56 184.32H61.44c-22.65088 0-40.96 18.30912-40.96 40.96v40.96c0 5.632 4.608 10.24 10.24 10.24h77.312l31.62112 669.45024A81.98144 81.98144 0 0 0 221.45024 1024h581.09952a81.8176 81.8176 0 0 0 81.79712-78.09024L915.968 276.48H993.28c5.632 0 10.24-4.608 10.24-10.24v-40.96c0-22.65088-18.30912-40.96-40.96-40.96z m-169.86112 747.52H231.30112l-30.98624-655.36H823.7056l-30.98624 655.36z" fill="currentColor" p-id="4981"></path></svg>