<?xml version="1.0" standalone="no"?><!DOCTYPE svg PUBLIC "-//W3C//DTD SVG 1.1//EN" "http://www.w3.org/Graphics/SVG/1.1/DTD/svg11.dtd"><svg t="1747186021894" class="icon" viewBox="0 0 1024 1024" version="1.1" xmlns="http://www.w3.org/2000/svg" p-id="4895" xmlns:xlink="http://www.w3.org/1999/xlink" width="200" height="200"><path d="M510.332 927.788c-228.658 0-414.734-186.081-414.734-414.739 0-228.659 186.077-414.736 414.734-414.736 228.659 0 414.74 186.076 414.74 414.736 0 82.48-24.14 161.941-69.74 230.335-7.709 11.4-23.468 14.753-34.868 7.044-11.399-7.715-14.752-23.469-7.038-34.872 40.229-60.014 61.355-129.748 61.355-202.506 0-200.83-163.279-364.444-364.449-364.444-200.83 0-364.443 163.279-364.443 364.444 0 200.834 163.278 364.448 364.443 364.448 79.127 0 154.228-24.809 217.26-71.751 11.063-8.381 26.822-6.034 35.202 5.03 8.385 11.065 6.037 26.824-5.026 35.203-72.083 53.309-157.581 81.808-247.436 81.808z m0 0" fill="#999999" p-id="4896"></path><path d="M706.818 351.956L349.071 709.703c-9.72 9.72-25.842 9.72-35.561 0-9.721-9.721-9.72-25.842 0-35.561l357.747-357.747c9.721-9.721 25.841-9.721 35.561 0 9.72 9.72 9.958 25.604 0 35.561z m0 0" fill="#999999" p-id="4897"></path><path d="M349.116 316.439l357.747 357.747c9.72 9.72 9.72 25.842 0 35.561-9.721 9.721-25.842 9.72-35.561 0L313.555 352.001c-9.721-9.721-9.721-25.841 0-35.561 9.719-9.721 25.603-9.959 35.561-0.001z m0 0" fill="#999999" p-id="4898"></path></svg>