<?xml version="1.0" standalone="no"?><!DOCTYPE svg PUBLIC "-//W3C//DTD SVG 1.1//EN" "http://www.w3.org/Graphics/SVG/1.1/DTD/svg11.dtd"><svg t="1746856067324" class="icon" viewBox="0 0 1048 1024" version="1.1" xmlns="http://www.w3.org/2000/svg" p-id="4496" xmlns:xlink="http://www.w3.org/1999/xlink" width="204.6875" height="200"><path d="M1025.785856 512c0 36.478976-49.143808 66.961408-56.9344 101.08928-8.036352 35.241984 22.765568 83.894272 7.364608 115.687424-15.654912 32.31744-73.203712 38.58432-95.461376 66.338816-22.36416 27.89376-15.7696 85.139456-43.769856 107.413504-27.877376 22.167552-82.41152 3.11296-114.860032 18.702336-31.924224 15.335424-50.855936 69.8368-86.237184 77.848576-34.258944 7.749632-74.973184-32.997376-111.599616-32.997376-36.61824 0-77.33248 40.747008-111.599616 32.989184-35.381248-8.003584-54.31296-62.50496-86.237184-77.848576-32.44032-15.589376-86.982656 3.473408-114.85184-18.694144-28.008448-22.28224-21.413888-79.519744-43.778048-107.413504-22.249472-27.77088-79.806464-34.021376-95.453184-66.338816-15.40096-31.793152 15.40096-80.44544 7.356416-115.687424-7.790592-34.127872-56.9344-64.610304-56.9344-101.08928s49.135616-66.961408 56.9344-101.08928c8.036352-35.241984-22.765568-83.894272-7.364608-115.687424 15.654912-32.31744 73.203712-38.58432 95.461376-66.338816 22.36416-27.89376 15.7696-85.139456 43.769856-107.413504 27.877376-22.167552 82.41152-3.11296 114.860032-18.702336 31.924224-15.335424 50.855936-69.8368 86.237184-77.848576C446.947328 17.170432 487.661568 57.91744 524.288 57.91744c36.61824 0 77.33248-40.747008 111.599616-32.989184 35.381248 8.003584 54.31296 62.50496 86.228992 77.848576 32.448512 15.589376 86.990848-3.473408 114.860032 18.694144 28.008448 22.28224 21.413888 79.519744 43.778048 107.413504 22.257664 27.77088 79.806464 34.021376 95.461376 66.338816 15.40096 31.793152-15.40096 80.44544-7.356416 115.687424 7.7824 34.127872 56.918016 64.610304 56.918016 101.08928z" fill="#F7862D" p-id="4497"></path><path d="M182.362112 512a341.925888 340.566016 0 1 0 683.851776 0 341.925888 340.566016 0 1 0-683.851776 0Z" fill="#EFEFEF" p-id="4498"></path><path d="M1014.00576 582.582272c16.203776-19.922944 34.57024-42.500096 34.57024-70.582272s-18.366464-50.659328-34.57024-70.57408c-10.11712-12.45184-20.586496-25.321472-22.921216-35.55328-2.514944-11.026432 1.39264-27.648 5.185536-43.728896 5.77536-24.526848 12.320768-52.322304 0.475136-76.783616-12.058624-24.879104-38.223872-37.175296-61.31712-48.021504-14.778368-6.946816-30.056448-14.123008-36.864-22.60992-6.88128-8.6016-10.559488-25.10848-14.106624-41.08288-5.48864-24.73984-11.71456-52.789248-33.25952-69.910528-21.430272-17.055744-50.208768-16.900096-75.5712-16.75264-16.490496 0.090112-33.529856 0.180224-43.597824-4.653056-9.674752-4.653056-20.02944-17.793024-30.048256-30.498816C686.145536 31.735808 668.205056 8.962048 640.94208 2.78528c-26.320896-5.963776-51.912704 6.51264-74.489856 17.522688-15.024128 7.323648-30.572544 14.901248-42.164224 14.901248s-27.140096-7.5776-42.172416-14.90944C459.546624 9.29792 433.9712-3.170304 407.63392 2.78528c-27.262976 6.168576-45.211648 28.942336-61.038592 49.037312-10.018816 12.713984-20.373504 25.853952-30.048256 30.498816-10.059776 4.83328-27.090944 4.75136-43.597824 4.653056-25.370624-0.139264-54.140928-0.294912-75.579392 16.75264-21.528576 17.12128-27.762688 45.170688-33.25952 69.910528-3.547136 15.9744-7.20896 32.48128-14.106624 41.08288-6.79936 8.495104-22.07744 15.671296-36.864 22.60992-23.085056 10.8544-49.258496 23.150592-61.308928 48.021504-11.853824 24.461312-5.300224 52.26496 0.475136 76.791808 3.784704 16.080896 7.70048 32.702464 5.185536 43.728896-2.33472 10.223616-12.804096 23.10144-22.929408 35.545088C18.366464 461.340672 0 483.917824 0 512s18.366464 50.659328 34.57024 70.582272c10.11712 12.443648 20.586496 25.31328 22.921216 35.545088 2.523136 11.026432-1.39264 27.648-5.185536 43.728896-5.77536 24.526848-12.320768 52.322304-0.475136 76.783616 12.050432 24.879104 38.223872 37.175296 61.31712 48.029696 14.778368 6.938624 30.048256 14.114816 36.864 22.60992 6.88128 8.6016 10.551296 25.10848 14.098432 41.074688 5.48864 24.73984 11.722752 52.789248 33.25952 69.91872 21.438464 17.03936 50.200576 16.891904 75.5712 16.744448 16.498688-0.08192 33.54624-0.180224 43.606016 4.653056 9.674752 4.653056 20.02944 17.793024 30.048256 30.507008 15.835136 20.086784 33.775616 42.868736 61.0304 49.037312 26.320896 5.955584 51.912704-6.51264 74.489856-17.514496 15.03232-7.33184 30.580736-14.90944 42.172416-14.90944 11.59168 0 27.140096 7.5776 42.164224 14.90944 18.538496 9.035776 39.100416 19.062784 60.440576 19.062784 4.653056 0 9.33888-0.475136 14.04928-1.548288 27.262976-6.168576 45.211648-28.942336 61.038592-49.037312 10.018816-12.713984 20.365312-25.853952 30.048256-30.498816 10.059776-4.83328 27.099136-4.743168 43.597824-4.653056 25.35424 0.131072 54.140928 0.294912 75.5712-16.75264 21.54496-17.12128 27.77088-45.170688 33.25952-69.910528 3.547136-15.9744 7.217152-32.48128 14.106624-41.08288 6.807552-8.495104 22.085632-15.671296 36.864-22.60992 23.093248-10.8544 49.258496-23.150592 61.308928-48.021504 11.853824-24.461312 5.308416-52.26496-0.466944-76.783616-3.784704-16.080896-7.70048-32.710656-5.185536-43.74528 2.33472-10.223616 12.804096-23.093248 22.929408-35.536896z m-35.422208-28.59008c-13.402112 16.490496-27.271168 33.538048-31.9488 54.0672-4.857856 21.250048 0.278528 43.073536 5.251072 64.167936 4.251648 18.038784 8.634368 36.691968 3.792896 46.686208-5.029888 10.40384-22.659072 18.67776-39.698432 26.681344-19.480576 9.158656-39.624704 18.620416-53.0432 35.34848-13.492224 16.83456-18.317312 38.58432-22.986752 59.604992-4.05504 18.251776-8.249344 37.126144-17.195008 44.2368-8.84736 7.04512-28.172288 6.930432-46.874624 6.832128-21.676032-0.12288-44.097536-0.24576-63.668224 9.158656-19.193856 9.232384-32.874496 26.58304-46.096384 43.360256-11.698176 14.852096-23.789568 30.195712-35.282944 32.800768-10.625024 2.408448-27.77088-5.9392-44.335104-14.016512-19.693568-9.609216-40.05888-19.53792-62.210048-19.53792-22.15936 0-42.51648 9.928704-62.210048 19.529728-16.572416 8.077312-33.718272 16.441344-44.343296 14.024704-11.485184-2.605056-23.584768-17.956864-35.282944-32.800768-13.221888-16.777216-26.894336-34.136064-46.096384-43.360256-17.383424-8.35584-36.995072-9.183232-56.352768-9.183232-2.441216 0-4.882432 0.008192-7.315456 0.024576-18.694144 0.098304-38.027264 0.2048-46.874624-6.832128-8.953856-7.110656-13.139968-25.985024-17.195008-44.2368-4.66944-21.028864-9.50272-42.770432-22.986752-59.604992-13.418496-16.728064-33.554432-26.189824-53.035008-35.34848-17.047552-8.003584-34.668544-16.285696-39.706624-26.681344-4.841472-9.99424-0.45056-28.655616 3.792896-46.6944 4.972544-21.086208 10.108928-42.909696 5.259264-64.159744-4.685824-20.537344-18.546688-37.584896-31.956992-54.0672-11.993088-14.7456-24.395776-29.999104-24.395776-41.992192 0-12.00128 12.402688-27.246592 24.395776-42.000384 13.410304-16.482304 27.27936-33.529856 31.965184-54.0672 4.849664-21.250048-0.294912-43.065344-5.267456-64.167936-4.243456-18.030592-8.634368-36.683776-3.792896-46.686208 5.03808-10.395648 22.659072-18.67776 39.706624-26.681344 19.480576-9.150464 39.624704-18.620416 53.035008-35.34848 13.492224-16.83456 18.325504-38.58432 22.994944-59.604992 4.05504-18.251776 8.241152-37.117952 17.195008-44.2368 8.84736-7.036928 28.164096-6.930432 46.874624-6.832128 21.676032 0.131072 44.089344 0.24576 63.660032-9.158656 19.202048-9.224192 32.874496-26.58304 46.096384-43.360256 11.698176-14.843904 23.79776-30.195712 35.282944-32.800768 10.625024-2.41664 27.77088 5.947392 44.343296 14.024704C481.77152 70.680576 502.136832 80.60928 524.288 80.60928c22.151168 0 42.51648-9.928704 62.210048-19.529728 16.572416-8.077312 33.71008-16.433152 44.335104-14.024704 11.493376 2.605056 23.59296 17.956864 35.282944 32.800768 13.23008 16.785408 26.902528 34.136064 46.104576 43.360256 19.570688 9.404416 41.951232 9.273344 63.668224 9.158656 18.67776-0.098304 38.027264-0.2048 46.866432 6.832128 8.953856 7.118848 13.14816 25.985024 17.2032 44.2368 4.66944 21.028864 9.494528 42.778624 22.986752 59.604992 13.410304 16.728064 33.554432 26.198016 53.035008 35.34848 17.03936 8.011776 34.668544 16.285696 39.706624 26.689536 4.83328 9.99424 0.45056 28.647424-3.801088 46.678016-4.964352 21.0944-10.108928 42.917888-5.259264 64.167936 4.685824 20.529152 18.55488 37.584896 31.956992 54.0672 12.00128 14.7456 24.395776 29.999104 24.395776 42.000384 0 11.993088-12.394496 27.246592-24.395776 41.992192z" fill="#231F20" p-id="4499"></path><path d="M524.288 148.733952c-201.1136 0-364.724224 162.963456-364.724224 363.266048S323.1744 875.266048 524.288 875.266048c201.1136 0 364.724224-162.963456 364.724224-363.266048S725.393408 148.733952 524.288 148.733952z m0 681.12384c-175.96416 0-319.127552-142.589952-319.127552-317.857792 0-175.26784 143.1552-317.857792 319.127552-317.857792 175.96416 0 319.135744 142.589952 319.135744 317.857792 0 175.26784-143.163392 317.857792-319.135744 317.857792z" fill="#231F20" p-id="4500"></path><path d="M624.689152 412.000256a22.863872 22.863872 0 0 0-32.243712 0L363.741184 639.803392a22.642688 22.642688 0 0 0 0 32.11264 22.77376 22.77376 0 0 0 16.113664 6.643712 22.77376 22.77376 0 0 0 16.121856-6.651904l228.704256-227.794944a22.642688 22.642688 0 0 0 0-32.11264zM669.319168 390.250496c5.840896 0 11.6736-2.220032 16.130048-6.660096l1.6384-1.6384a22.642688 22.642688 0 0 0-0.016384-32.104448 22.85568 22.85568 0 0 0-32.23552 0.008192l-1.6384 1.6384a22.642688 22.642688 0 0 0 0.008192 32.11264 22.77376 22.77376 0 0 0 16.113664 6.63552zM498.4832 401.16224c0-46.956544-38.346752-85.147648-85.48352-85.147648-47.136768 0-85.48352 38.199296-85.48352 85.139456 0 46.948352 38.346752 85.147648 85.48352 85.147648 47.136768 0 85.48352-38.199296 85.48352-85.147648z m-125.37856 0c0-21.9136 17.89952-39.7312 39.89504-39.7312s39.89504 17.8176 39.89504 39.7312c0 21.905408-17.89952 39.7312-39.89504 39.7312s-39.89504-17.825792-39.89504-39.7312zM635.57632 537.706496c-47.136768 0-85.48352 38.191104-85.48352 85.139456 0 46.948352 38.346752 85.139456 85.48352 85.139456 47.136768 0 85.48352-38.191104 85.48352-85.139456 0-46.948352-38.346752-85.139456-85.48352-85.139456z m0 124.870656c-21.99552 0-39.89504-17.825792-39.89504-39.7312 0-21.905408 17.89952-39.7312 39.89504-39.7312s39.89504 17.825792 39.89504 39.7312c0 21.905408-17.89952 39.7312-39.89504 39.7312z" fill="#231F20" p-id="4501"></path></svg>