<?xml version="1.0" standalone="no"?><!DOCTYPE svg PUBLIC "-//W3C//DTD SVG 1.1//EN" "http://www.w3.org/Graphics/SVG/1.1/DTD/svg11.dtd"><svg t="1746856351254" class="icon" viewBox="0 0 1024 1024" version="1.1" xmlns="http://www.w3.org/2000/svg" p-id="6535" xmlns:xlink="http://www.w3.org/1999/xlink" width="200" height="200"><path d="M710.496 114.816a48 48 0 0 1 2.656 6.4l47.232 142.4 142.4 47.232a48 48 0 0 1 27.776 67.072L863.264 512l67.296 134.08a48 48 0 0 1-27.808 67.072l-142.4 47.232-47.2 142.4a48 48 0 0 1-67.072 27.776L512 863.264l-134.08 67.296a48 48 0 0 1-67.072-27.808l-47.232-142.4-142.4-47.2a48 48 0 0 1-27.776-67.072L160.736 512 93.44 377.92a48 48 0 0 1 27.808-67.072l142.4-47.232 47.2-142.4a48 48 0 0 1 67.072-27.776L512 160.736l134.08-67.296a48 48 0 0 1 64.416 21.376z m-8.16 243.84a32 32 0 0 0-45.28 0l-295.68 295.68-2.656 3.04a32 32 0 0 0 47.904 42.24l295.68-295.68 2.688-3.04a32 32 0 0 0-2.656-42.24z m-52.256 253.568a48 48 0 1 0-0.064 95.968 48 48 0 0 0 0.064-95.968zM400 352a48 48 0 1 0-0.064 95.936A48 48 0 0 0 400 352z" fill="#FF8C51" p-id="6536"></path></svg>