<?xml version="1.0" standalone="no"?><!DOCTYPE svg PUBLIC "-//W3C//DTD SVG 1.1//EN" "http://www.w3.org/Graphics/SVG/1.1/DTD/svg11.dtd"><svg t="1746779403384" class="icon" viewBox="0 0 1024 1024" version="1.1" xmlns="http://www.w3.org/2000/svg" p-id="4745" xmlns:xlink="http://www.w3.org/1999/xlink" width="200" height="200"><path d="M977.6 281.6c-4.8-4.8-4.8-4.8 0 0L832 20.8C824 8 811.2 0 793.6 0H230.4c-17.6 0-30.4 8-38.4 20.8l-145.6 256c-4.8 8-4.8 17.6-4.8 20.8v683.2c0 25.6 17.6 43.2 43.2 43.2h854.4c25.6 0 43.2-17.6 43.2-43.2V302.4c-1.6-8-1.6-16-4.8-20.8z m-726.4 59.2c-8 25.6-33.6 43.2-59.2 43.2s-51.2-17.6-59.2-43.2h118.4z m4.8-256h512L862.4 256H161.6L256 84.8z m635.2 256c-8 25.6-33.6 43.2-59.2 43.2s-51.2-17.6-59.2-43.2h118.4z m-212.8 0c-8 25.6-33.6 43.2-59.2 43.2s-51.2-17.6-59.2-43.2h118.4z m-212.8 0c-8 25.6-33.6 43.2-59.2 43.2s-51.2-17.6-59.2-43.2h118.4zM299.2 939.2v-256H384v256h-84.8z m169.6 0V640c0-25.6-17.6-43.2-43.2-43.2H256c-25.6 0-43.2 17.6-43.2 43.2v299.2H128V452.8c20.8 12.8 43.2 17.6 64 17.6 43.2 0 81.6-17.6 107.2-46.4 25.6 30.4 64 46.4 107.2 46.4s81.6-17.6 107.2-46.4c25.6 30.4 64 46.4 107.2 46.4s81.6-17.6 107.2-46.4c25.6 30.4 64 46.4 107.2 46.4 20.8 0 43.2-4.8 64-17.6v486.4H468.8z" p-id="4746"></path><path d="M768 596.8h-128c-25.6 0-43.2 17.6-43.2 43.2v128c0 25.6 17.6 43.2 43.2 43.2h128c25.6 0 43.2-17.6 43.2-43.2v-128c0-25.6-17.6-43.2-43.2-43.2z m-43.2 128h-43.2v-43.2h43.2v43.2z" p-id="4747"></path></svg>